<svg width="58" height="30" viewBox="0 0 58 30" fill="none" xmlns="http://www.w3.org/2000/svg">
<path d="M0.533403 8.53559C0.847211 8.44441 1.25856 8.54191 1.57119 8.67573C1.66916 8.71724 1.61955 8.90276 1.68718 8.93977C1.81946 9.0119 1.9427 8.92091 2.07341 9.00685C2.11674 9.03623 2.06281 9.33011 2.10824 9.3542C2.35716 9.48407 2.59265 9.40922 2.84481 9.47169C4.08688 9.7799 5.3078 9.89022 6.56506 10.0241C6.97962 10.068 7.48356 10.3347 7.91174 10.2181C7.96173 10.2042 7.93193 9.94625 7.94144 9.92499C8.0906 9.59952 8.04101 10.1203 8.1384 10.1895C8.52495 10.4626 8.95478 10.4864 9.32679 10.3868C9.48505 10.3437 9.32637 9.83138 9.48572 10.119C9.49679 10.1384 9.45663 10.4123 9.50004 10.4415C9.59846 10.5072 9.7852 10.4583 9.86149 10.48C10.0085 10.5232 10.0328 10.5204 10.1719 10.5236C10.362 10.5302 10.5881 10.6664 10.792 10.6043C10.8356 10.5903 10.7779 10.3094 10.8474 10.2617C10.9169 10.214 11.1007 10.2378 11.1627 10.304C11.2247 10.3702 11.1983 10.5909 11.2092 10.6415C11.2995 11.0685 11.5121 10.4771 11.5395 10.4625C12.0384 10.2133 12.4662 10.5502 12.9345 10.5492C13.29 10.5478 13.6701 10.4365 14.0083 10.4518C14.4113 10.471 14.7529 10.6232 15.1444 10.5971C15.1857 10.5946 15.1373 10.2645 15.1878 10.2608C15.7239 10.2224 16.2563 10.2584 16.7901 10.4813C16.8437 10.5039 16.7747 10.7938 16.8282 10.8337C17.1557 11.072 17.6738 11.6442 17.8683 10.3821C18.0901 10.4314 18.3594 10.4823 18.5579 10.7368C18.6858 10.9005 18.5616 11.2163 18.7187 11.0815C18.7542 11.0515 18.7081 10.775 18.7613 10.7509C18.9851 10.6496 19.2296 10.7395 19.451 10.5966C19.4961 10.5669 19.4838 10.3191 19.4965 10.2745C19.6038 9.91309 19.7823 10.5105 19.8213 10.5539C20.1176 10.8776 20.3341 10.7502 20.6102 10.7581C20.6742 10.7601 20.5985 10.4272 20.6602 10.4172C20.9799 10.3695 21.3111 10.3981 21.6242 10.5458C21.6939 10.5794 21.6298 10.863 21.6631 10.8936C21.8099 11.025 21.8424 10.4895 21.9831 10.6052C22.0128 10.6289 21.9961 10.8716 22.0015 10.8983C22.0862 11.3167 22.1598 10.7238 22.1816 10.7107C22.4572 10.5318 22.6333 11.1508 22.8996 11.0632C22.9314 11.0521 22.8596 10.7449 22.9491 10.7325C23.5456 10.6477 24.1764 10.7321 24.7669 10.9777C24.8586 11.0155 24.7931 11.2462 24.7989 11.2747C24.893 11.719 24.954 11.1236 24.9839 11.1012C25.22 10.9398 25.4406 11.4391 25.601 10.7299C26.6011 10.976 27.5966 10.5778 28.5884 11.2131C28.601 11.2205 28.5784 11.5137 28.6035 11.5272C28.9065 11.6918 28.8483 11.2361 29.0487 10.6787C29.0992 10.5387 29.2528 11.2117 29.2664 11.261C29.3159 11.4428 29.2646 11.879 29.2811 11.9142C29.4183 12.1907 29.396 10.7479 29.5811 10.7474C29.5869 10.7498 29.5626 11.0154 29.5781 11.0418C29.6263 11.1247 29.6742 11.0192 29.7214 11.1106C29.8295 11.3221 29.868 12.0232 30.0331 11.6152C30.054 11.5622 30.0221 10.7438 30.1873 10.7825C30.2532 10.7986 30.5448 10.7846 30.6265 10.8376C30.7082 10.8906 30.6521 11.1543 30.6579 11.1657C30.8779 11.5145 30.7945 11.659 30.9047 12.1753C31.0149 12.6897 30.9843 11.4629 31.0292 11.3259C31.0742 11.1894 31.2355 11.4771 31.2751 11.5771C31.3147 11.6772 31.2653 11.8448 31.3005 11.9014C31.5341 12.2714 31.403 11.2925 31.48 11.0978C31.6614 10.6367 31.8027 11.5465 31.9687 11.6357C32.0137 11.6598 31.977 11.4525 32.017 11.4332C32.1755 11.3592 32.2708 11.643 32.4511 11.3828C32.4806 11.3403 32.6263 10.7933 32.7207 11.1948C32.7341 11.2526 32.6961 11.4794 32.7636 11.5302C32.8645 11.6064 33.0463 11.6559 33.1548 11.5801C33.2349 11.5241 33.1431 11.1505 33.2439 11.2665C33.2887 11.3184 33.2056 11.5369 33.2898 11.616C33.3735 11.6951 33.5875 11.6855 33.669 11.678C33.7503 11.6703 33.7058 11.3869 33.7123 11.3678C33.7521 11.2584 33.9081 11.1218 33.9219 11.1221C34.6173 11.0875 35.2586 11.5652 35.9357 11.4071C35.9889 11.3951 35.9535 11.0963 35.9616 11.0914C36.1435 10.9662 36.0001 11.7607 36.1271 12.0266C36.1088 11.4202 36.1838 11.53 36.3119 11.4635C36.3737 11.431 36.34 11.1962 36.3457 11.1721C36.4372 10.8155 36.501 11.2761 36.5174 11.3704C36.5781 11.717 36.6441 11.3074 36.6853 11.5391C36.7266 11.7691 36.6317 12.11 36.7545 12.1057C36.789 11.8886 36.6978 11.3213 36.7911 11.2294C37.1431 10.8816 37.8002 11.3267 38.0833 11.3729C38.3658 11.4191 38.457 11.3791 38.6216 11.4575C38.9189 11.5994 38.81 11.1785 38.9946 10.9858C39.1798 10.7932 39.0898 11.8288 39.1164 12.0514C39.1425 12.2739 39.171 12.0449 39.2035 12.1672C39.2359 12.2895 39.1658 12.4408 39.242 12.4868C39.3182 12.5326 39.5266 12.1368 39.5537 11.904C39.6108 11.4109 39.5169 10.8933 39.7186 11.0751C39.7302 11.0859 39.6925 11.3582 39.7369 11.3857C40.0898 11.5954 40.4563 11.6084 40.8087 11.7938C40.8571 11.8197 40.8138 12.1226 40.842 12.1411C41.1357 12.3349 41.0307 11.8241 41.1917 11.2567C41.1556 12.0118 41.2446 12.4738 41.4675 12.4782C41.6015 12.4812 41.5784 12.1514 41.6651 11.9189C41.6911 11.8489 41.7859 12.0753 41.8031 11.9202C41.8598 11.4133 41.7705 10.8457 42.0003 11.0717C42.0104 11.0825 41.9783 11.36 42.0131 11.3768C42.2383 11.4868 42.2653 10.9565 42.5087 10.8923C42.6995 10.8419 43.0389 11.1652 43.2562 11.2178C43.2516 12.0668 43.4568 11.8724 43.5401 11.2871C43.6811 11.311 43.8334 11.2779 43.9697 11.3588C44.0166 11.3864 43.9858 11.6322 43.9917 11.6588C44.0824 12.0754 44.1437 11.5059 44.1741 11.4836C44.504 11.2666 44.7728 11.6982 45.0876 11.2764C45.0987 11.2612 45.1168 10.6715 45.201 11.1021C45.2064 11.1317 45.1025 11.4 45.2506 11.4208C45.3987 11.4416 45.6779 11.7577 45.8835 11.4844C45.9333 11.4187 46.0592 10.9399 46.1602 11.314C46.1736 11.3648 46.1589 11.5339 46.1783 11.628C46.2411 11.9279 46.2754 11.3318 46.3492 11.8382C46.423 12.3445 46.5766 12.7237 46.784 12.3744C46.7906 12.3642 46.8396 11.8918 46.9049 11.8993C47.009 11.9116 47.1568 12.01 47.2655 12.007C47.3175 12.0053 47.2842 11.712 47.2932 11.7066C47.6432 11.5422 47.8923 11.8037 48.2671 11.9172C48.3359 11.9386 48.5334 11.5386 48.6664 11.8549C48.8125 12.2011 48.6624 13.6412 48.9982 13.2981C49.1336 13.1609 49.3051 11.3338 49.5485 12.2804C50.0205 12.0458 50.457 12.5303 50.9304 12.1954C50.9517 12.1805 51.019 11.6706 51.069 11.6776C51.1433 11.6888 51.1841 11.9272 51.2372 11.9429C51.4594 12.0147 51.6629 11.8108 51.8772 11.8425C51.9585 11.854 51.9301 12.1004 52.0271 12.1142C52.1241 12.1277 52.1888 11.8032 52.3202 11.96C52.4195 12.0794 52.5187 12.7427 52.6505 12.82C52.6555 12.1658 52.746 12.1792 52.9068 12.0065C52.9377 11.973 52.9046 11.7453 52.9192 11.7177C52.9787 11.6003 53.0338 11.7891 53.0903 11.6613C53.1041 11.6306 53.1047 11.4072 53.116 11.3695C53.2115 11.0405 53.369 11.543 53.396 11.6306C53.4997 11.9629 53.5481 11.6723 53.6276 11.8032C53.707 11.934 53.5883 12.0976 53.681 12.177C53.8732 12.3412 54.1201 12.3052 54.3153 12.3154C54.3931 12.3181 54.34 12.0199 54.3511 12.0134C54.5122 11.9377 54.675 12.255 54.7643 11.6609C54.8759 13.197 54.8614 11.5119 55.0916 11.8194C55.1097 11.8443 55.1328 12.5707 55.0631 12.6773C54.9935 12.7838 54.888 12.5568 54.7914 12.723C54.7685 12.762 54.6375 13.4427 54.6197 13.4839C54.4796 13.8062 54.4598 12.7207 54.4524 12.6611C54.3684 12.0177 54.2083 12.751 54.1661 12.8016C53.9733 13.0338 53.8094 12.8811 53.6481 13.0469C53.5426 13.154 53.5323 13.865 53.4494 13.8433C53.174 13.7713 53.0779 12.7794 52.8184 13.6395C52.7627 13.8229 52.818 14.6 52.6187 13.9889C52.6061 13.9504 52.4581 13.3914 52.3726 13.745C52.3618 13.7896 52.3622 14.0161 52.348 14.0351C52.2531 14.1582 52.1897 13.9777 52.0863 14.0641C51.9829 14.1506 51.8585 14.2794 51.7404 14.2026C51.6693 14.1566 51.578 13.7347 51.5439 13.6313C51.4477 13.3337 51.3446 13.8217 51.285 13.4613C51.2249 13.0991 51.3424 12.549 51.1848 12.315C51.179 12.9034 51.1656 13.5074 51.1562 14.0992C50.8109 14.0785 50.4711 13.8882 50.1246 13.9142C50.0816 13.918 50.1256 14.2343 50.0795 14.2466C49.8852 14.2968 49.7155 14.0713 49.5141 14.1611C49.3581 14.2319 49.1871 14.5668 49.024 14.6512C48.9244 13.9778 48.6824 14.2064 48.5066 14.1449C48.445 14.1236 48.4492 13.9438 48.4054 13.8851C48.2401 13.6681 48.3176 14.2632 48.2723 14.3568C48.0779 14.7564 48.0613 13.4097 47.8322 13.4429C47.8201 13.4442 47.6717 14.1621 47.6513 14.2068C47.5214 14.4984 47.6298 13.957 47.5485 13.9039C47.4002 13.807 47.2971 13.6355 47.123 13.8458C47.0722 13.9081 46.9505 14.3556 46.8519 14.0095C46.8389 13.9641 46.8461 13.7268 46.8357 13.7129C46.6467 13.4813 46.6418 14.2269 46.5338 14.4794C46.4258 14.7319 46.2591 14.2172 46.2251 14.0688C46.1363 13.6851 46.2931 13.9048 46.298 13.8672C46.3545 13.419 46.2328 13.4962 46.1399 13.4583C46.1264 12.7272 45.9965 12.7711 46.0435 13.422C46.0489 13.4931 46.1212 13.4249 46.1399 13.4583C46.0583 14.1756 45.9155 14.2675 45.7577 13.5972C45.6839 13.283 45.7537 12.9167 45.5293 13.0507C45.4275 13.1112 45.4669 13.6146 45.377 13.7518C45.1718 14.0649 44.905 13.5954 44.6934 13.6694C44.6166 13.6962 44.6914 13.9718 44.639 13.9996C44.4997 14.0744 44.3768 13.8677 44.2369 13.9736C44.2243 13.9835 44.2552 14.272 44.2117 14.2756C43.8819 14.3091 43.5947 14.1244 43.2504 14.1193C43.084 14.1169 42.7866 14.276 42.6142 14.244C42.3155 14.1903 41.9481 13.7708 41.6929 13.8727C41.5264 13.938 41.563 14.2265 41.4916 14.423C41.354 14.8041 41.1104 14.1215 41.0776 14.0159C41.0766 14.0124 41.2199 13.9444 41.1434 13.7963C41.099 13.4877 41.0793 14.0145 41.0776 14.0159C41.0561 13.9476 40.77 13.8821 40.7132 13.9372C40.6823 13.9674 40.6996 14.2407 40.6835 14.2513C40.301 14.4959 39.9177 14.5654 39.5297 14.4376C39.5229 14.432 39.5332 14.1263 39.5171 14.1171C39.2925 13.9812 39.1487 14.3552 38.9634 14.5773C38.7782 14.7992 38.6313 14.7249 38.5216 14.2C38.3819 14.2661 38.1814 14.034 38.066 13.8932C37.9506 13.7524 37.9345 14.3476 37.9244 14.3594C37.6077 14.736 37.4246 14.3953 37.0961 14.3423C36.9399 14.3161 36.6301 14.4024 36.461 14.4675C36.3274 14.5199 36.2469 14.3804 36.1237 14.4696C36.1071 14.4815 36.1239 14.7465 36.1188 14.7567C35.9814 15.0738 36.0474 14.4259 36.019 14.3102C35.9162 13.8895 35.8526 13.6654 35.6766 13.8633C35.636 13.9087 35.5178 14.8414 35.4438 14.896C35.3475 14.9652 35.3839 14.6309 35.2831 14.7118C35.2745 14.7185 35.2763 14.9247 35.2141 14.9156C34.9255 14.8761 34.6108 14.7561 34.3109 14.7768C34.2699 14.7788 34.3225 15.106 34.2633 15.1143C33.9855 15.1531 33.6811 15.141 33.4105 14.9878C33.3439 14.9491 33.3856 14.72 33.3712 14.652C33.2824 14.2405 33.1565 14.8385 33.1358 14.8498C32.6403 15.1372 32.2612 14.596 31.7562 14.8537C31.7287 14.8688 31.5171 15.5098 31.4227 14.9601C31.4163 14.9235 31.3229 14.361 31.2403 14.7456C31.2352 14.7697 31.2934 15.0592 31.1918 15.0297C31.0902 15.0003 30.9268 15.1936 30.7872 14.8755C30.743 14.7753 30.6385 14.2142 30.5067 14.6614C30.4981 14.6927 30.2946 15.704 30.2219 15.0062C30.2102 14.8914 30.2225 14.153 30.0651 14.5315C30.0351 14.6049 30.0897 14.7696 30.0105 14.8725C29.8891 15.031 29.7283 14.8332 29.5791 15.1622C29.5531 15.2204 29.4424 15.7216 29.3536 15.3412C29.3396 15.2816 29.3661 15.0351 29.3192 15.0075C29.0961 14.8752 28.8625 15.0401 28.636 14.8695C28.5558 14.8096 28.5968 14.411 28.5132 14.3043C28.4295 14.1975 28.261 14.0948 28.1735 14.2769C28.086 14.4591 28.1816 15.0942 28.0505 15.1451C27.4804 15.3658 26.9156 14.9932 26.3464 14.9387C26.262 14.9306 26.3319 15.1578 26.2075 15.1622C25.7488 15.1791 24.9568 15.3922 24.5588 14.9092C24.2399 14.5224 24.6412 14.228 24.3975 14.0705C24.2799 13.9955 24.1527 14.7339 24.1243 14.7571C23.8469 14.9933 23.6542 14.6662 23.4046 14.7665C23.353 14.7874 23.4036 15.0866 23.3597 15.1011C23.2099 15.153 23.0524 15.0194 22.9092 15.0438C22.8449 15.0555 22.8568 15.2841 22.7977 15.2664C22.6562 15.2268 22.5312 15.1307 22.3933 14.9165C22.3807 14.897 22.4655 14.6126 22.3608 14.602C22.1914 14.5857 21.9812 14.3744 21.7864 14.5926C21.7286 14.6583 21.7263 15.1807 21.602 14.8199C21.5759 14.7446 21.6092 14.1173 21.4644 14.6593C21.4401 14.7494 21.1969 15.4805 21.0776 15.0092C21.0461 14.8852 20.9657 14.3718 20.8962 14.4525C20.8868 14.4654 20.9246 14.746 20.8669 14.7734C20.6639 14.865 20.4511 14.835 20.2425 14.9229C20.1868 14.9469 20.2698 15.2373 20.1868 15.2638C19.9585 15.3372 19.6734 15.2633 19.4502 15.1724C19.3679 15.1384 19.4248 14.8978 19.4188 14.8716C19.3225 14.4459 19.2655 15.0206 19.2336 15.0541C19.0348 15.2547 18.8834 14.9848 18.7002 15.0562C18.6496 15.0752 18.6854 15.3492 18.6754 15.3736C18.571 15.6124 18.6487 15.1203 18.5827 15.066C18.3975 14.9124 18.1912 14.9345 18.004 14.9695C17.9352 14.9827 18.0125 15.3005 17.9508 15.3087C17.5855 15.3635 17.2058 15.3331 16.8493 15.1579C16.7822 15.1243 16.8244 14.8797 16.8104 14.8238C16.714 14.4328 16.5727 14.9661 16.5402 15.0169C16.3924 15.2488 16.335 15.0325 16.2044 15.0729C15.5666 15.2739 14.7791 15.1306 14.1771 15.0421C13.3926 14.9282 12.7839 14.6954 12.0357 14.7559C11.9882 14.7594 12.0361 15.0849 11.9952 15.0921C11.466 15.1706 10.945 15.0434 10.4148 15.1374C10.3713 15.1445 10.434 15.4531 10.3641 15.4749C10.2209 15.5218 10.0394 15.5051 9.8946 15.4065C9.82395 15.3591 9.91871 15.0943 9.8476 15.0519C9.68203 14.9527 9.50455 14.9307 9.33448 14.9802C9.2621 15.0019 9.3713 15.3175 9.27723 15.3211C8.63642 15.3524 8.00709 15.4068 7.35953 14.9981C7.31513 14.97 7.27618 14.3287 7.18179 14.4517C7.17468 14.6297 7.17507 14.839 7.17197 15.0293C6.23912 15.1318 5.3158 14.9094 4.38033 14.8751C4.34089 14.8737 4.40906 15.2135 4.3327 15.2126C3.89074 15.2076 3.46158 15.3017 3.00951 14.9639C2.96466 14.9309 2.98767 14.333 2.85549 14.4235C2.83218 14.44 2.6331 14.5197 2.58162 14.6495C2.57463 14.669 2.61095 14.9481 2.5468 14.9562C2.17401 14.9986 1.78333 14.9349 1.41118 14.7644C1.35112 14.7363 1.41508 14.4392 1.3723 14.4166C1.06885 14.2589 0.738774 14.4848 0.448808 14.215C0.254715 14.0333 0.326574 13.5196 0.223435 13.014C0.208847 12.9426 0.0886592 12.9313 0.0824439 12.6371C0.0664873 11.8974 0.124703 11.0873 0.100815 10.2988C0.0957688 10.129 -0.0651944 10.3119 0.0301061 9.9015C0.0367639 9.87403 0.153463 9.73781 0.182206 9.59858C0.202218 9.50232 0.166156 9.20313 0.206986 9.0799C0.247814 8.95679 0.292677 9.20759 0.360368 9.06281C0.428029 8.91625 0.398278 8.57588 0.533403 8.53559ZM37.5465 13.2639C37.4396 12.9781 37.4238 14.0249 37.5394 13.7745C37.545 13.7611 37.552 13.2779 37.5465 13.2639ZM50.473 13.0986C50.3334 12.6368 50.2378 13.3158 50.3363 13.6724C50.4348 14.0286 50.5156 13.2385 50.473 13.0986ZM51.9214 12.7615C51.7581 12.3974 51.7325 13.8819 51.9073 13.5818C51.9175 13.5648 51.9309 12.7826 51.9214 12.7615ZM0.701738 12.87C0.700263 12.8561 0.613868 12.8425 0.611803 12.8563C0.565799 13.1888 0.738555 13.2157 0.701738 12.87ZM53.3586 12.3945C53.3077 12.1937 53.1609 12.4255 53.2243 12.6752C53.2752 12.876 53.4221 12.6443 53.3586 12.3945ZM31.9732 12.1467C31.9715 12.1311 31.9096 12.117 31.9108 12.2052C31.9151 12.4892 32.0013 12.409 31.9732 12.1467ZM55.8014 12.3774C55.4405 12.3215 55.2217 11.0953 55.6147 11.2336C55.6859 11.2587 55.4613 11.6247 55.5519 11.7352C55.7177 11.9366 55.8278 11.1667 55.9969 11.5793C56.0275 11.6548 55.822 12.3833 55.8008 12.3791C55.801 12.3785 55.8012 12.3779 55.8014 12.3774ZM37.4849 12.0065C37.4828 11.9927 37.3971 11.9796 37.395 11.9933C37.3485 12.3256 37.5213 12.3523 37.4849 12.0065ZM28.3589 11.4994C28.3542 11.4699 28.1552 11.4423 28.1487 11.4695C28.0449 12.0129 28.4472 12.0703 28.3589 11.4994ZM43.2596 11.2405C43.3532 10.9061 43.4651 10.8668 43.5397 11.2866C43.4467 11.2643 43.3531 11.2611 43.2596 11.2405ZM57.6788 15.0445C57.5865 15.2156 57.3451 15.2594 57.1285 15.2429C57.0609 15.2381 56.9806 15.0687 56.9292 15.0584C56.829 15.0386 56.8233 15.1517 56.7162 15.1199C56.6801 15.1086 56.5417 14.8477 56.5076 14.8414C56.3222 14.8089 56.2565 14.9427 56.1071 14.9673C55.3705 15.0879 54.7534 15.3667 54.1066 15.637C53.8935 15.7263 53.516 15.6574 53.3858 15.8844C53.3707 15.9111 53.5274 16.1167 53.5348 16.1373C53.6474 16.4534 53.3812 16.005 53.2984 15.977C52.9709 15.8671 52.762 15.9778 52.6478 16.1736C52.5996 16.2575 52.9561 16.6356 52.724 16.4447C52.7082 16.4319 52.5745 16.1918 52.5386 16.1807C52.4573 16.1559 52.3994 16.2533 52.3527 16.2584C52.2617 16.2671 52.2522 16.2767 52.1871 16.3164C52.0969 16.3685 51.9184 16.3239 51.86 16.4374C51.8479 16.4623 52.0299 16.6785 52.0248 16.7393C52.0197 16.8001 51.9227 16.8361 51.8578 16.7999C51.7928 16.7636 51.6824 16.5719 51.6494 16.5332C51.3714 16.2053 51.6026 16.7619 51.5983 16.7824C51.5093 17.1412 51.1277 16.9907 50.915 17.1337C50.7539 17.2428 50.6425 17.4507 50.48 17.5407C50.2858 17.647 50.0459 17.6241 49.8821 17.7647C49.8646 17.7793 50.0698 18.0393 50.0489 18.0577C49.826 18.2524 49.5636 18.3841 49.1969 18.3607C49.16 18.3581 49.0306 18.0959 48.9841 18.0789C48.7028 17.9801 48.1494 17.6613 48.761 18.7704C48.6326 18.7968 48.4817 18.8362 48.2503 18.6847C48.1012 18.5873 47.9826 18.2868 47.9858 18.4467C47.9863 18.4824 48.1607 18.6985 48.1498 18.7347C48.1041 18.8869 47.9428 18.8864 47.9213 19.0725C47.9173 19.1109 48.0603 19.3133 48.0793 19.3543C48.2309 19.6876 47.8182 19.2447 47.7764 19.2204C47.4619 19.041 47.434 19.2127 47.3039 19.29C47.2736 19.3078 47.4927 19.5617 47.4702 19.5888C47.3511 19.7256 47.1844 19.8023 46.9599 19.7745C46.9095 19.7676 46.7814 19.5123 46.7493 19.4969C46.6096 19.4321 46.8918 19.8876 46.7635 19.834C46.7369 19.8233 46.6099 19.6163 46.5926 19.5957C46.3219 19.2733 46.6173 19.789 46.6146 19.8065C46.5884 20.0389 46.1648 19.5774 46.0922 19.7311C46.0838 19.7501 46.2869 19.9838 46.253 20.0213C46.0285 20.273 45.6944 20.3943 45.2893 20.3691C45.2265 20.3655 45.1284 20.1537 45.11 20.1318C44.8206 19.7906 45.1232 20.3045 45.122 20.3322C45.104 20.5382 44.7266 20.1897 45.0469 20.8285C44.455 20.9273 44.2226 21.5609 43.4186 21.3333C43.4087 21.331 43.2564 21.0802 43.2375 21.0766C43.0082 21.0316 43.2875 21.3932 43.5054 21.9178C43.5601 22.0496 43.1168 21.5363 43.0833 21.4993C42.9599 21.3631 42.7413 20.9845 42.7142 20.9603C42.4984 20.7719 43.3089 21.9656 43.2248 22.0222C43.2209 22.0219 43.0846 21.7936 43.0629 21.7763C42.995 21.722 43.0317 21.8243 42.9595 21.7626C42.7929 21.6194 42.3865 21.0478 42.5377 21.4374C42.5575 21.4878 43.026 22.1591 42.9293 22.1771C42.8904 22.1836 42.7654 22.2838 42.6988 22.2645C42.6322 22.2452 42.5114 22.0088 42.5025 22.001C42.2089 21.7776 42.1667 21.6321 41.8301 21.2359C41.4946 20.8414 42.189 21.8529 42.2445 21.9804C42.2998 22.1077 42.0667 21.9173 41.9932 21.8461C41.9197 21.7748 41.8492 21.6204 41.8018 21.584C41.4902 21.347 42.0929 22.1217 42.1658 22.3071C42.339 22.7458 41.77 22.0317 41.6449 22.0079C41.6111 22.0015 41.7427 22.1628 41.7352 22.1911C41.7041 22.3008 41.5033 22.0935 41.5655 22.3648C41.5756 22.4091 41.8127 22.9084 41.5471 22.6031C41.5089 22.559 41.4004 22.3588 41.3415 22.337C41.2533 22.3043 41.143 22.3182 41.1356 22.4142C41.1303 22.4851 41.3793 22.7681 41.269 22.7022C41.2199 22.6726 41.1365 22.4656 41.0542 22.4253C40.9723 22.3849 40.8801 22.4579 40.8472 22.4889C40.8145 22.52 40.9919 22.7422 40.9995 22.7601C41.0421 22.8632 41.0468 23.0242 41.0404 23.0281C40.7429 23.268 40.1859 23.0653 39.9653 23.4024C39.9477 23.4285 40.1296 23.6664 40.1287 23.6729C40.1153 23.8323 39.7399 23.1277 39.5345 22.945C39.8792 23.444 39.7842 23.3754 39.7627 23.4697C39.7526 23.5155 39.8982 23.7006 39.909 23.7223C40.0651 24.0469 39.7805 23.683 39.7208 23.6095C39.5009 23.3395 39.698 23.7003 39.5507 23.5201C39.4044 23.3413 39.2585 23.0288 39.2049 23.0697C39.3097 23.2608 39.6659 23.7051 39.6744 23.8099C39.707 24.2061 39.1609 24.0353 39.0063 24.0828C38.8521 24.1301 38.8328 24.1911 38.7143 24.1758C38.5002 24.148 38.7833 24.4651 38.8061 24.6815C38.8286 24.898 38.2952 24.009 38.1596 23.8319C38.0243 23.6546 38.1383 23.8539 38.0557 23.762C37.9731 23.6701 37.921 23.5228 37.8609 23.5077C37.8007 23.4927 37.9254 23.8854 38.0422 24.0872C38.2897 24.5149 38.6196 24.917 38.4269 24.827C38.4156 24.8215 38.2817 24.5835 38.2462 24.5741C37.9693 24.5068 37.7952 24.6072 37.5319 24.56C37.4954 24.5531 37.3471 24.2879 37.324 24.2811C37.0828 24.209 37.4139 24.6021 37.6554 25.1231C37.253 24.4838 36.9562 24.1265 36.8522 24.1905C36.7896 24.2287 36.983 24.4961 37.0725 24.7158C37.0995 24.782 36.9307 24.6223 37.0089 24.7566C37.2643 25.1956 37.6198 25.6407 37.3898 25.5225C37.3792 25.5166 37.2399 25.2759 37.2147 25.2725C37.0512 25.2494 37.333 25.6988 37.2578 25.8261C37.1989 25.926 36.865 25.7599 36.7369 25.7821C36.268 25.0744 36.2824 25.2984 36.5692 25.8107C36.4917 25.8336 36.4407 25.9074 36.3338 25.8814C36.2971 25.8727 36.1748 25.6589 36.1574 25.6386C35.885 25.3195 36.1729 25.8119 36.1715 25.8397C36.1416 26.1204 35.7798 25.8429 35.8704 26.2894C35.8738 26.3054 36.1926 26.8016 35.9155 26.4689C35.8965 26.4458 35.7951 26.191 35.7161 26.2187C35.6371 26.2464 35.3346 26.0681 35.3926 26.3579C35.4064 26.4277 35.6146 26.8643 35.3612 26.5837C35.3269 26.5456 35.2398 26.4004 35.1787 26.328C34.9838 26.0975 35.2988 26.6038 34.9843 26.2049C34.6698 25.806 34.3896 25.5371 34.4889 25.8908C34.4915 25.9012 34.7312 26.3092 34.6974 26.3228C34.6431 26.3441 34.5213 26.3071 34.4735 26.3427C34.4507 26.3598 34.6286 26.5938 34.6274 26.601C34.5593 26.844 34.3008 26.702 34.0671 26.7214C34.024 26.7245 34.1559 27.1172 33.9199 26.8945C33.6614 26.6508 32.9309 25.4069 32.9683 25.7944C32.9827 25.9497 33.9181 27.5219 33.2822 26.8082C33.1974 27.1467 32.7299 26.8761 32.7001 27.2985C32.6986 27.3173 32.9509 27.762 32.9242 27.7714C32.8841 27.7845 32.7333 27.5986 32.7005 27.6017C32.5594 27.6094 32.5799 27.8408 32.4647 27.8795C32.4213 27.8946 32.2976 27.6809 32.2457 27.6989C32.1941 27.7171 32.3446 28.0067 32.1978 27.9162C32.0864 27.847 31.6733 27.3252 31.5704 27.3009C31.931 27.8468 31.8823 27.863 31.9049 28.0556C31.9094 28.0928 32.0508 28.2722 32.0594 28.2996C32.0974 28.4154 31.9677 28.2751 32.0128 28.3985C32.0236 28.4282 32.1472 28.6143 32.163 28.6491C32.302 28.9519 31.9515 28.5815 31.8907 28.5169C31.6591 28.2719 31.7983 28.5283 31.6895 28.4436C31.5808 28.3588 31.5441 28.1867 31.4578 28.1487C31.2792 28.0704 31.1868 28.1754 31.0922 28.2261C31.0552 28.2475 31.2449 28.4795 31.2434 28.4883C31.212 28.6002 30.9619 28.3856 31.2508 28.907C30.3479 27.6628 31.2892 29.0605 31.0138 28.8745C30.9918 28.8593 30.5784 28.2619 30.5509 28.152C30.5235 28.0423 30.6975 28.1992 30.6493 28.0315C30.6381 27.9921 30.3201 27.386 30.3054 27.3463C30.1904 27.0356 30.8016 27.9328 30.838 27.9801C31.2332 28.49 30.8993 27.8313 30.8904 27.7763C30.8494 27.5246 31.0087 27.6018 30.9903 27.415C30.9789 27.2938 30.5892 26.6991 30.639 26.692C30.8043 26.6683 31.3983 27.4644 31.0394 26.67C30.963 26.5005 30.5067 25.8707 30.9365 26.3186C30.9635 26.3469 31.341 26.7671 31.1838 26.4469C31.164 26.4065 31.0382 26.2182 31.0341 26.1981C31.0091 26.0668 31.138 26.1977 31.1371 26.0944C31.1363 25.9911 31.1215 25.8462 31.2179 25.8743C31.2757 25.8909 31.5514 26.2143 31.6242 26.2899C31.8331 26.5083 31.6094 26.071 31.8364 26.3528C32.0647 26.6359 32.3163 27.1293 32.5179 27.2762C32.1941 26.7848 31.8652 26.2782 31.5413 25.7829C31.71 25.6953 31.9703 25.7505 32.1136 25.6237C32.1311 25.6075 31.9356 25.3576 31.9498 25.3335C32.0103 25.2327 32.2127 25.3688 32.2546 25.2329C32.2864 25.1267 32.1785 24.7961 32.206 24.6764C32.6248 25.2064 32.6082 24.9427 32.7224 24.9406C32.7622 24.9396 32.8601 25.0904 32.9126 25.126C33.1082 25.2563 32.7429 24.7848 32.7116 24.6931C32.5784 24.3016 33.333 25.4171 33.4189 25.3199C33.4237 25.3151 33.093 24.6728 33.0775 24.6294C32.9749 24.3474 33.2259 24.8307 33.2923 24.8502C33.4137 24.8858 33.5557 24.9972 33.5183 24.7694C33.5069 24.7021 33.3141 24.2929 33.551 24.5509C33.5821 24.5847 33.7104 24.7843 33.7229 24.7927C33.9374 24.9281 33.5261 24.3062 33.4352 24.0633C33.3443 23.8205 33.7057 24.1981 33.8035 24.3112C34.0568 24.6036 33.8635 24.4684 33.8822 24.5012C34.105 24.8912 34.1176 24.7901 34.181 24.7934C34.5926 25.3976 34.6274 25.3216 34.245 24.7943C34.2031 24.7368 34.208 24.8155 34.181 24.7934C33.8202 24.1718 33.8343 24.052 34.278 24.5618C34.4858 24.8008 34.6572 25.1268 34.6851 24.9472C34.6979 24.8659 34.4007 24.459 34.3655 24.3176C34.2853 23.9947 34.6672 24.3045 34.7225 24.1787C34.7426 24.133 34.5557 23.9264 34.5641 23.8873C34.5861 23.7828 34.7567 23.9176 34.7617 23.787C34.7619 23.7748 34.5878 23.5442 34.6056 23.528C34.7372 23.4 34.9704 23.4665 35.1301 23.3663C35.2071 23.3177 35.2543 23.095 35.3505 23.0693C35.5164 23.0234 35.9164 23.2608 35.976 23.0986C36.0156 22.9938 35.839 22.7648 35.7624 22.5796C35.6137 22.2208 36.1032 22.7147 36.1768 22.7927C36.1792 22.7953 36.1517 22.8954 36.2687 22.9954C36.4601 23.2387 36.1768 22.7943 36.1768 22.7927C36.2245 22.843 36.3911 22.8106 36.3864 22.7475C36.3837 22.713 36.2242 22.4908 36.2257 22.4772C36.2642 22.1575 36.4002 21.9834 36.6477 21.9719C36.6539 21.9745 36.8188 22.232 36.8312 22.2347C37.0089 22.2796 36.8669 21.9248 36.8281 21.6838C36.7893 21.4429 36.8975 21.4601 37.2386 21.8636C37.2655 21.7661 37.4856 21.8983 37.6162 21.9805C37.7468 22.0626 37.424 21.5625 37.4221 21.5496C37.3574 21.1402 37.6297 21.3681 37.8088 21.3124C37.8944 21.2868 37.9876 21.121 38.0285 21.0155C38.0603 20.9313 38.1743 21.0229 38.1809 20.9113C38.1819 20.8963 38.0272 20.681 38.0239 20.6709C37.9106 20.3654 38.2399 20.9245 38.317 21.0121C38.5972 21.331 38.7505 21.4981 38.7208 21.28C38.7141 21.23 38.2506 20.418 38.254 20.3501C38.2594 20.2633 38.4284 20.5525 38.4293 20.4546C38.4296 20.4464 38.3143 20.2753 38.3477 20.264C38.501 20.2093 38.7109 20.2136 38.836 20.1054C38.8535 20.0913 38.6481 19.835 38.6705 19.8101C38.7754 19.6935 38.9208 19.6112 39.1289 19.6564C39.1807 19.6684 39.2888 19.8717 39.3331 19.9239C39.6018 20.2394 39.3274 19.7036 39.3306 19.6879C39.3968 19.2984 39.8696 19.6335 39.9566 19.2659C39.9608 19.2449 39.7015 18.6473 40.0495 19.0761C40.0727 19.1046 40.4273 19.5442 40.2515 19.1992C40.2405 19.1776 40.0534 18.9543 40.116 18.9481C40.1786 18.9417 40.1458 18.7312 40.3858 18.9536C40.4615 19.0235 40.8203 19.4587 40.6323 19.0465C40.6189 19.0179 40.1505 18.1147 40.5707 18.6732C40.6398 18.7652 41.0437 19.3833 40.9054 19.0205C40.8783 18.9503 40.7621 18.8299 40.7412 18.7203C40.7085 18.5515 40.8914 18.6673 40.7769 18.3483C40.7564 18.292 40.5288 17.8413 40.7803 18.1309C40.8197 18.1762 40.9444 18.3894 40.981 18.3981C41.156 18.4405 41.1709 18.2324 41.3687 18.3055C41.4385 18.331 41.6408 18.6751 41.7382 18.7385C41.8355 18.802 41.9692 18.8363 41.908 18.6582C41.8468 18.48 41.4509 17.9806 41.4825 17.8985C41.6196 17.5417 42.0834 17.6803 42.3729 17.5529C42.4158 17.534 42.2579 17.3661 42.3122 17.3248C42.5117 17.1715 42.7541 16.7537 43.2032 17.0347C43.563 17.2597 43.5436 17.6266 43.7419 17.6836C43.8371 17.7104 43.4854 17.0573 43.4855 17.0294C43.4808 16.7487 43.75 16.9623 43.808 16.8031C43.8199 16.7701 43.6308 16.5364 43.6428 16.5111C43.6823 16.4224 43.8281 16.4858 43.8797 16.422C43.9025 16.3928 43.7703 16.2062 43.807 16.2029C43.8934 16.1929 44.0037 16.2349 44.1853 16.3713C44.2018 16.3837 44.321 16.646 44.3745 16.6231C44.4607 16.5852 44.6736 16.6973 44.6413 16.4565C44.6312 16.3843 44.3424 15.949 44.5991 16.2114C44.6528 16.2662 44.9856 16.7983 44.7509 16.3033C44.712 16.221 44.4172 15.5388 44.733 15.8947C44.8161 15.9884 45.1374 16.3911 45.1244 16.3029C45.1215 16.2893 44.9487 16.0673 44.9597 16.027C45.0014 15.8892 45.1149 15.8495 45.1611 15.713C45.1731 15.6761 44.9743 15.4597 44.9974 15.4124C45.0606 15.2821 45.2314 15.2571 45.3835 15.2649C45.4398 15.2683 45.5474 15.4857 45.5646 15.5056C45.8447 15.8307 45.5518 15.3352 45.5478 15.2976C45.527 15.0703 45.7457 15.249 45.7895 15.1339C45.802 15.1028 45.6336 14.8857 45.6247 14.8623C45.5398 14.6319 45.7773 15.065 45.8375 15.0901C46.007 15.1617 46.0888 15.0807 46.1546 14.9947C46.1786 14.9628 45.9671 14.7219 45.9907 14.6963C46.1266 14.5399 46.3164 14.4499 46.5759 14.4875C46.625 14.495 46.7415 14.7114 46.7789 14.7536C47.0397 15.0497 46.8082 14.5631 46.7948 14.5109C46.7335 14.2731 46.8796 14.4356 46.9167 14.3624C47.0956 14.0015 47.5337 13.8817 47.8569 13.7726C48.2773 13.6292 48.6836 13.6381 48.9908 13.3607C49.0105 13.3433 48.8081 13.0871 48.8227 13.0686C49.0202 12.8427 49.328 12.7904 49.5173 12.5512C49.5331 12.532 49.3334 12.2943 49.3531 12.255C49.3923 12.1724 49.4842 12.1313 49.6048 12.1693C49.6633 12.1874 49.767 12.4364 49.8229 12.4501C49.9534 12.4824 50.0464 12.4468 50.0964 12.354C50.1173 12.314 49.8925 12.0846 49.9333 12.053C50.2078 11.8324 50.4642 11.5961 50.9857 11.7396C51.0215 11.7494 51.395 12.2713 51.3698 12.1403C51.2743 11.99 51.158 11.8159 51.0538 11.6567C51.4218 11.2882 51.9656 11.1929 52.4106 10.9376C52.4293 10.9267 52.2098 10.6647 52.2451 10.6423C52.4491 10.5123 52.5923 10.3037 52.9855 10.4475C53.0243 10.4613 53.3454 10.9658 53.3554 10.8504C53.3569 10.8296 53.4033 10.7028 53.3548 10.5792C53.3471 10.5608 53.1758 10.3396 53.2005 10.3134C53.3467 10.165 53.56 10.0994 53.824 10.1283C53.8669 10.1334 54.0026 10.4001 54.0346 10.4058C54.2603 10.445 54.2853 10.1568 54.567 10.2933C54.7561 10.3855 55.0084 10.8347 55.3358 11.2242C55.382 11.2791 55.443 11.252 55.609 11.4949C56.0266 12.1056 56.4495 12.7972 56.8977 13.4461C56.9942 13.5858 56.9661 13.3848 57.1503 13.7552C57.1625 13.7801 57.185 13.9288 57.2491 14.0534C57.2934 14.1396 57.4758 14.3776 57.5255 14.4925C57.5752 14.6073 57.4157 14.4123 57.4652 14.5533C57.5157 14.6958 57.718 14.9699 57.6788 15.0445ZM38.2019 22.3464C38.4091 22.5518 37.8356 21.676 37.9219 21.9194C37.9267 21.9322 38.1916 22.3364 38.2019 22.3464ZM32.4074 26.4081C32.7271 26.7499 32.394 26.156 32.1513 25.8892C31.9089 25.6227 32.3104 26.3046 32.4074 26.4081ZM31.9348 27.1283C32.2111 27.3816 31.3994 26.1387 31.4862 26.4414C31.491 26.4586 31.9188 27.1136 31.9348 27.1283ZM55.1979 11.4892C55.2063 11.5003 55.2531 11.4853 55.2464 11.4732C55.0829 11.1826 54.9894 11.2127 55.1979 11.4892ZM31.4839 27.8699C31.6185 28.0216 31.5568 27.7841 31.3894 27.5956C31.2548 27.4439 31.3165 27.6814 31.4839 27.8699ZM41.3594 21.5841C41.3688 21.5966 41.4048 21.5895 41.3553 21.5165C41.1959 21.2815 41.2011 21.3743 41.3594 21.5841ZM30.3811 28.6257C30.5764 28.5627 31.3563 29.5165 31.1005 29.5207C31.0542 29.5215 30.9535 29.1488 30.8509 29.0843C30.6637 28.967 31.0407 29.641 30.7348 29.3491C30.679 29.2956 30.3684 28.6271 30.3804 28.6241C30.3806 28.6246 30.3809 28.6252 30.3811 28.6257ZM38.9273 23.3739C38.936 23.3848 38.9823 23.3697 38.9756 23.3576C38.8124 23.067 38.719 23.0973 38.9273 23.3739ZM43.3642 21.0255C43.3828 21.0486 43.4887 21.0112 43.4766 20.9866C43.2224 20.5029 43.0073 20.5772 43.3642 21.0255ZM36.7227 25.7643C36.8656 26.0709 36.8365 26.1377 36.5696 25.811C36.6243 25.8013 36.6688 25.7756 36.7227 25.7643ZM54.4923 15.13C54.3161 15.1589 54.1644 14.9946 54.0709 14.8142C54.0414 14.7581 54.1318 14.5942 54.1145 14.5477C54.0806 14.4569 53.9912 14.5196 53.9631 14.4163C53.9541 14.3812 54.0859 14.1172 54.0741 14.0867C54.0081 13.9213 53.8736 13.949 53.7815 13.8458C53.3285 13.3371 52.8128 13.0163 52.2892 12.6672C52.1164 12.5523 51.9843 12.214 51.7468 12.2461C51.7189 12.2501 51.6383 12.4956 51.6263 12.5137C51.4395 12.79 51.6522 12.3141 51.6331 12.2323C51.5568 11.9089 51.3698 11.8101 51.164 11.8363C51.0762 11.8482 50.9614 12.3535 50.9939 12.0573C50.9959 12.0373 51.1142 11.7894 51.1051 11.7545C51.0843 11.6757 50.9814 11.6879 50.9546 11.6541C50.9034 11.5876 50.8913 11.5859 50.8291 11.5581C50.745 11.518 50.6918 11.3508 50.5762 11.3722C50.5513 11.3775 50.475 11.6492 50.4259 11.6813C50.3769 11.7133 50.3019 11.6583 50.2978 11.5856C50.2937 11.5129 50.3863 11.3121 50.3998 11.2631C50.5146 10.8495 50.2019 11.362 50.1841 11.3708C49.8659 11.5137 49.7941 11.1237 49.5805 11.0409C49.4181 10.9788 49.2044 11.0145 49.056 10.9399C48.8795 10.85 48.7795 10.6473 48.5917 10.6018C48.572 10.5966 48.4735 10.9127 48.4492 10.907C48.191 10.8471 47.9617 10.7185 47.8 10.4157C47.7839 10.385 47.9212 10.1275 47.9114 10.0807C47.8492 9.80046 47.8222 9.17516 47.2729 10.3154C47.1899 10.2299 47.0858 10.1344 47.0883 9.86214C47.0899 9.68685 47.2617 9.41504 47.141 9.51242C47.1139 9.53404 47.0339 9.79974 47.0009 9.81269C46.862 9.86698 46.7835 9.73962 46.6305 9.83311C46.5991 9.85273 46.5142 10.0856 46.4921 10.1249C46.3114 10.4422 46.4482 9.85414 46.4463 9.80677C46.4295 9.45249 46.2845 9.53243 46.1616 9.47577C46.1332 9.46249 46.0461 9.7859 46.0144 9.78425C45.8514 9.77156 45.711 9.68578 45.6223 9.49237C45.6029 9.4486 45.7356 9.19607 45.7316 9.16165C45.7128 9.0131 45.5024 9.50585 45.4806 9.37299C45.4757 9.34563 45.572 9.12264 45.5792 9.09685C45.6934 8.69215 45.4435 9.23101 45.4288 9.23931C45.238 9.35662 45.3837 8.74889 45.2305 8.78295C45.2119 8.78761 45.1325 9.08636 45.0872 9.08196C44.7846 9.05438 44.5282 8.86319 44.349 8.52906C44.321 8.47749 44.4351 8.27441 44.4428 8.2469C44.5622 7.81637 44.3171 8.35982 44.2953 8.37535C44.1288 8.48346 44.2107 7.9792 43.8787 8.61079C43.5132 8.20308 42.9145 8.39608 42.6948 7.62748C42.6918 7.61838 42.8091 7.34941 42.8026 7.33243C42.7247 7.12504 42.5848 7.55973 42.2901 8.04287C42.216 8.16416 42.3917 7.51021 42.4035 7.46186C42.4473 7.28378 42.63 6.88679 42.6353 6.85106C42.6738 6.5692 42.1572 7.91638 42.0728 7.88377C42.071 7.88049 42.179 7.6376 42.1816 7.61025C42.1899 7.52445 42.1296 7.61415 42.1414 7.52061C42.1694 7.30439 42.4079 6.64484 42.1837 6.99521C42.1549 7.04078 41.8706 7.80839 41.8095 7.74289C41.7854 7.71613 41.6475 7.67712 41.6296 7.61315C41.6118 7.54926 41.7336 7.31374 41.7351 7.30207C41.7623 6.93813 41.853 6.81846 41.9913 6.31811C42.1289 5.81959 41.695 6.96715 41.6245 7.08661C41.5542 7.20569 41.5858 6.90902 41.6043 6.80882C41.6228 6.70859 41.7065 6.56139 41.7111 6.50239C41.7398 6.11625 41.4421 7.05099 41.336 7.21852C41.0851 7.61534 41.3529 6.74312 41.3098 6.63047C41.2981 6.60003 41.2392 6.79948 41.2139 6.81038C41.1147 6.85098 41.1749 6.56967 40.9978 6.7798C40.9689 6.81402 40.7028 7.29723 40.8064 6.90667C40.8215 6.85039 40.9215 6.64611 40.9093 6.58677C40.8912 6.49779 40.8265 6.4192 40.7495 6.47038C40.6925 6.50828 40.5979 6.87246 40.5944 6.74643C40.5929 6.69019 40.7105 6.50155 40.7011 6.41286C40.6918 6.32428 40.5909 6.29499 40.551 6.28748C40.5112 6.28014 40.428 6.5519 40.418 6.5685C40.36 6.66321 40.2391 6.76257 40.2329 6.75979C39.9036 6.66781 39.786 6.1086 39.42 6.13487C39.3914 6.13655 39.2984 6.42107 39.2929 6.4242C39.1644 6.50827 39.5197 5.79422 39.559 5.52395C39.3459 6.09178 39.3519 5.97616 39.2692 6.01519C39.2292 6.03446 39.1588 6.25906 39.1475 6.28043C38.9756 6.59611 39.1147 6.15587 39.1417 6.06521C39.2406 5.73166 39.061 6.10119 39.1268 5.87811C39.192 5.65665 39.3597 5.35621 39.3021 5.33833C39.2072 5.53426 39.0416 6.07867 38.9656 6.1476C38.6783 6.40849 38.5416 5.87679 38.4296 5.7832C38.3178 5.68975 38.2616 5.71075 38.2153 5.60832C38.1317 5.42317 38.0277 5.83445 37.8733 5.98083C37.7186 6.1271 38.1377 5.17909 38.2068 4.96709C38.2762 4.75527 38.1796 4.96342 38.2094 4.84373C38.2393 4.7241 38.3265 4.59571 38.3086 4.53935C38.2906 4.48303 38.0512 4.81435 37.9539 5.02623C37.7479 5.47513 37.6017 5.97375 37.5762 5.76842C37.5749 5.7563 37.6914 5.50953 37.6812 5.47597C37.5971 5.21781 37.4349 5.14026 37.3422 4.90474C37.3296 4.87195 37.4599 4.59768 37.4538 4.57541C37.3908 4.34258 37.2521 4.83683 36.9717 5.33631C37.2638 4.63981 37.3919 4.19384 37.2921 4.14989C37.2321 4.12322 37.1222 4.43435 36.9979 4.63526C36.9605 4.69585 37 4.46811 36.9355 4.60943C36.7246 5.07128 36.5581 5.61558 36.536 5.36415C36.5353 5.35236 36.6512 5.09974 36.6415 5.07787C36.5791 4.93524 36.3732 5.42411 36.2389 5.44042C36.1337 5.45326 36.0972 5.09162 36.0174 5.00386C36.3294 4.21435 36.165 4.35867 35.9134 4.88872C35.858 4.84123 35.7765 4.84484 35.744 4.74519C35.7327 4.71113 35.8365 4.48781 35.8435 4.46203C35.9543 4.05799 35.7185 4.57719 35.6965 4.59253C35.467 4.73566 35.5022 4.28587 35.2049 4.62233C35.1942 4.63448 34.9707 5.18023 35.0896 4.76436C35.0979 4.73575 35.2432 4.50454 35.1834 4.45878C35.1235 4.41297 35.1118 4.06882 34.9184 4.28649C34.8717 4.33884 34.6396 4.76203 34.7302 4.39579C34.7426 4.3461 34.811 4.19128 34.8366 4.1002C34.9174 3.80981 34.6842 4.35857 34.8355 3.87399C34.9867 3.38942 35.0552 3.00897 34.8333 3.29718C34.8266 3.30545 34.6317 3.73649 34.6048 3.71789C34.5619 3.68782 34.5305 3.56981 34.4799 3.55326C34.4556 3.5455 34.3636 3.82454 34.3576 3.82792C34.1382 3.91846 34.1203 3.63052 33.991 3.45792C33.9675 3.42574 33.7315 3.76288 33.7864 3.44469C33.8463 3.0963 34.4404 1.78238 34.1623 2.04184C34.0505 2.14542 33.3054 3.81575 33.5401 2.89102C33.2395 3.0251 33.2176 2.49612 32.8798 2.7234C32.8647 2.73341 32.6479 3.19612 32.6276 3.18072C32.5979 3.15694 32.6664 2.92778 32.6479 2.90369C32.5729 2.79717 32.4059 2.95068 32.3198 2.88288C32.287 2.85762 32.3899 2.63328 32.3508 2.60313C32.3116 2.5732 32.1636 2.86375 32.161 2.69438C32.1594 2.56544 32.3564 1.93023 32.3246 1.83473C32.0835 2.44291 32.0472 2.41421 31.9109 2.54627C31.8846 2.57195 31.8165 2.78986 31.7998 2.81294C31.7298 2.91158 31.7737 2.72604 31.7013 2.83489C31.6838 2.861 31.602 3.06889 31.5831 3.10198C31.4194 3.39124 31.5312 2.89523 31.5509 2.80894C31.625 2.48104 31.4969 2.74293 31.5084 2.60689C31.5201 2.4709 31.6338 2.3398 31.6206 2.24932C31.593 2.0621 31.4674 2.0516 31.3823 2.00719C31.3479 1.99076 31.2632 2.2779 31.2557 2.282C31.1548 2.32366 31.1964 1.99924 30.9389 2.53637C31.4488 1.08639 30.8403 2.65773 30.8477 2.33036C30.8486 2.30397 31.1032 1.62359 31.1739 1.53674C31.2445 1.44998 31.2096 1.68022 31.3143 1.54271C31.339 1.51047 31.6471 0.900172 31.6703 0.864977C31.8517 0.589979 31.4645 1.60409 31.4461 1.66092C31.2494 2.27492 31.59 1.62082 31.6277 1.58118C31.8003 1.39947 31.8192 1.57085 31.9532 1.44537C32.0403 1.3645 32.3046 0.704381 32.3344 0.739436C32.4335 0.855586 32.1151 1.79619 32.5473 1.04185C32.6396 0.881018 32.8982 0.14764 32.7659 0.752156C32.7575 0.790259 32.6208 1.33714 32.7889 1.02322C32.81 0.983632 32.8926 0.772713 32.906 0.757532C32.9941 0.65991 32.9571 0.839198 33.0357 0.777214C33.1144 0.715229 33.218 0.6175 33.2437 0.710102C33.2594 0.765574 33.1469 1.17473 33.1247 1.27699C33.0598 1.57124 33.2849 1.13538 33.1805 1.48153C33.0756 1.82947 32.8213 2.32058 32.8076 2.5666C33.0251 2.01982 33.2517 1.45994 33.472 0.910691C33.6217 0.991644 33.707 1.22946 33.8742 1.26713C33.8952 1.27125 33.9907 0.968902 34.0161 0.965726C34.1229 0.953634 34.1179 1.19388 34.2424 1.14625C34.3393 1.10826 34.5394 0.826976 34.6445 0.777539C34.444 1.42218 34.6377 1.25259 34.6952 1.34127C34.7155 1.37206 34.648 1.53874 34.6465 1.60118C34.6425 1.83269 34.8245 1.26492 34.8793 1.18583C35.1137 0.848476 34.6296 2.10528 34.7461 2.11521C34.7521 2.11616 35.0817 1.47431 35.1073 1.43634C35.2729 1.18813 35.0259 1.6728 35.0435 1.73669C35.0757 1.85343 35.0601 2.03145 35.2161 1.86677C35.262 1.81786 35.4808 1.42302 35.3993 1.76284C35.3886 1.80735 35.2987 2.02698 35.2984 2.04178C35.2999 2.29117 35.5744 1.59793 35.7157 1.38212C35.857 1.16636 35.7451 1.67532 35.7064 1.81948C35.6067 2.1926 35.6155 1.96001 35.5996 1.99421C35.4102 2.40135 35.4938 2.35124 35.5223 2.40309C35.2615 3.0861 35.3367 3.06846 35.5529 2.4541C35.5764 2.38696 35.5186 2.43752 35.5223 2.40309C35.8213 1.74989 35.9199 1.68987 35.747 2.34206C35.6659 2.64772 35.5004 2.97626 35.6515 2.89157C35.7199 2.85344 35.8858 2.37778 35.9768 2.26606C36.1846 2.0112 36.1346 2.49598 36.258 2.46489C36.3028 2.4536 36.3693 2.18372 36.4034 2.16716C36.4941 2.12242 36.4746 2.33683 36.5769 2.26321C36.5863 2.25622 36.6775 1.98216 36.6987 1.9865C36.8611 2.01421 36.9244 2.23749 37.0793 2.30374C37.1542 2.33563 37.3478 2.24065 37.4146 2.3012C37.531 2.40456 37.5452 2.86067 37.6986 2.81138C37.7982 2.78038 37.8869 2.50527 37.9911 2.335C38.1929 2.00485 38.0546 2.68375 38.031 2.78799C38.0301 2.79143 37.9401 2.82917 37.9208 2.98069C37.8284 3.2759 38.0297 2.78895 38.031 2.78799C38.0159 2.8554 38.1222 2.96746 38.1682 2.92626C38.1933 2.90371 38.2852 2.64616 38.2964 2.63921C38.5599 2.4798 38.7598 2.48356 38.8898 2.67182C38.8909 2.67818 38.7746 2.96099 38.7785 2.97239C38.8312 3.13906 39.0332 2.81654 39.1987 2.64289C39.364 2.46932 39.4038 2.56476 39.2621 3.07299C39.3499 3.03642 39.3564 3.28826 39.3576 3.43994C39.3587 3.59163 39.5833 3.04043 39.5923 3.03129C39.8739 2.73724 39.8329 3.08707 39.9631 3.19509C40.0247 3.2474 40.1973 3.22235 40.298 3.19196C40.378 3.16702 40.3638 3.31125 40.4524 3.25021C40.4644 3.2421 40.5534 2.99238 40.5595 2.9838C40.7378 2.71317 40.4712 3.30448 40.4419 3.41726C40.3351 3.82733 40.2823 4.0473 40.4347 3.89446C40.4697 3.85951 40.8641 3.01224 40.9177 2.97467C40.9868 2.92742 40.8482 3.2322 40.9236 3.17479C40.93 3.17016 41.0045 2.97781 41.0295 2.99738C41.1465 3.0857 41.2459 3.25363 41.3901 3.28794C41.4095 3.29336 41.505 2.9794 41.535 2.98222C41.6756 2.99571 41.8098 3.06135 41.8771 3.25224C41.8933 3.30018 41.7907 3.50599 41.7724 3.57189C41.6626 3.97088 41.9382 3.43667 41.9518 3.42977C42.2823 3.25072 42.2574 3.82223 42.5814 3.67254C42.5995 3.66337 42.9299 3.10437 42.7721 3.63305C42.7617 3.66826 42.5989 4.20859 42.7769 3.8653C42.788 3.84382 42.8672 3.56384 42.9027 3.60945C42.9382 3.65501 43.0832 3.50417 43.0306 3.82529C43.0142 3.92649 42.8569 4.46751 43.0802 4.07466C43.0955 4.04712 43.5574 3.14195 43.3358 3.80452C43.2992 3.91355 43.024 4.59878 43.2339 4.27442C43.2743 4.21146 43.3096 4.04838 43.3832 3.96678C43.4964 3.84088 43.4974 4.05371 43.6854 3.77412C43.7185 3.72456 43.9519 3.27775 43.8535 3.64775C43.8381 3.7057 43.736 3.93047 43.7473 3.96453C43.8006 4.12757 43.9671 4.01577 44.008 4.215C44.0227 4.28513 43.8585 4.64881 43.8576 4.76316C43.8567 4.87749 43.8959 5.00319 44.0023 4.84928C44.1086 4.69529 44.297 4.08691 44.3752 4.06301C44.7154 3.95932 44.8366 4.40703 45.0759 4.55943C45.1113 4.58208 45.1624 4.358 45.2207 4.3762C45.4357 4.44237 45.8742 4.38541 45.8791 4.90609C45.8831 5.32314 45.5928 5.52562 45.6464 5.71568C45.6725 5.80658 46 5.14185 46.0214 5.12528C46.2339 4.95496 46.2023 5.2939 46.3526 5.24505C46.3837 5.23486 46.4699 4.9472 46.4951 4.94162C46.5823 4.92005 46.6053 5.07254 46.6794 5.07537C46.7129 5.07599 46.791 4.86107 46.8114 4.88805C46.8614 4.95015 46.8833 5.06194 46.8678 5.28602C46.8664 5.30644 46.724 5.55603 46.7678 5.58457C46.839 5.62999 46.8575 5.86429 47.026 5.69589C47.0763 5.64509 47.268 5.15913 47.1929 5.51721C47.1772 5.59202 46.9331 6.1701 47.1969 5.69133C47.2409 5.61182 47.6185 4.97461 47.5008 5.43466C47.4699 5.55575 47.319 6.04801 47.3801 5.98532C47.3891 5.97502 47.4744 5.70702 47.5106 5.69183C47.6365 5.64283 47.7225 5.7087 47.8495 5.66412C47.8837 5.6517 47.9519 5.36655 47.9994 5.35667C48.1302 5.32911 48.233 5.44884 48.3014 5.57332C48.3265 5.61973 48.2127 5.83351 48.2059 5.85895C48.0943 6.27253 48.3301 5.74767 48.3569 5.72218C48.5206 5.57087 48.491 5.84923 48.6005 5.81544C48.6305 5.8068 48.7142 5.54529 48.7277 5.52434C48.8624 5.32072 48.6473 5.76497 48.6576 5.82728C48.6858 6.00333 48.7879 6.01968 48.8859 6.02051C48.922 6.02044 49.0028 5.71083 49.034 5.71419C49.2203 5.72844 49.3821 5.82455 49.4804 6.05128C49.4988 6.09451 49.3902 6.31475 49.3762 6.36927C49.2773 6.75047 49.5364 6.27923 49.5697 6.23774C49.7217 6.0482 49.6689 6.25989 49.7431 6.2456C50.1069 6.1723 50.4132 6.44633 50.655 6.63626C50.9706 6.88242 51.1628 7.20781 51.5256 7.28514C51.5485 7.29034 51.6455 6.97876 51.6668 6.97935C51.9364 7.0008 52.1272 7.21224 52.403 7.2194C52.4254 7.22053 52.5095 6.92207 52.5493 6.91422C52.6316 6.8961 52.7081 6.94412 52.7381 7.06171C52.7529 7.11852 52.6131 7.34809 52.63 7.40023C52.6692 7.52222 52.742 7.57437 52.8375 7.55869C52.8784 7.55139 52.9439 7.23809 52.988 7.2515C53.2913 7.33678 53.5977 7.39857 53.7434 7.89465C53.7533 7.92871 53.5369 8.53277 53.6248 8.43511C53.693 8.27067 53.7693 8.07567 53.8401 7.89911C54.3023 7.97027 54.6416 8.34215 55.055 8.5412C55.0725 8.54953 55.1655 8.22098 55.1999 8.23548C55.3994 8.31908 55.6292 8.30807 55.7117 8.70326C55.7201 8.74202 55.4913 9.29449 55.5845 9.23392C55.6011 9.22272 55.7209 9.18404 55.7917 9.07241C55.8021 9.05544 55.8874 8.78916 55.9196 8.79304C56.1048 8.82017 56.2594 8.94924 56.3667 9.17443C56.3838 9.21127 56.2461 9.4765 56.2574 9.50514C56.338 9.70619 56.5708 9.55482 56.6043 9.85779C56.6263 10.0616 56.4061 10.527 56.2684 11.0161C56.249 11.0851 56.2996 11.1171 56.1951 11.3921C55.9323 12.0837 55.61 12.8274 55.333 13.5657C55.2733 13.7248 55.4134 13.5832 55.2202 13.9483C55.2071 13.9727 55.1042 14.0786 55.0403 14.2031C54.996 14.2892 54.9032 14.5741 54.8397 14.6816C54.7761 14.7889 54.8473 14.5474 54.7636 14.6701C54.6793 14.7945 54.5685 15.1166 54.4923 15.13ZM39.3644 4.11861C39.3087 4.40378 39.6981 3.43202 39.554 3.64455C39.5466 3.65598 39.367 4.10457 39.3644 4.11861ZM33.4178 1.96422C33.3129 2.41902 33.6042 1.80403 33.6896 1.45445C33.7748 1.10524 33.4495 1.82632 33.4178 1.96422ZM32.6352 2.01941C32.5767 2.38749 33.1303 1.01009 32.9411 1.25825C32.9303 1.27222 32.6386 1.99803 32.6352 2.01941ZM55.9981 11.0647C55.9937 11.078 56.0281 11.106 56.034 11.0935C56.1764 10.7922 56.1075 10.7364 55.9981 11.0647ZM31.8468 2.10443C31.7967 2.30047 31.9481 2.11087 32.0104 1.8671C32.0606 1.67099 31.9091 1.86055 31.8468 2.10443ZM41.4943 6.15395C41.4894 6.16878 41.5125 6.19291 41.5441 6.1106C41.6459 5.84545 41.5773 5.90468 41.4943 6.15395ZM30.7282 1.68413C30.8721 1.8006 30.5241 2.98126 30.3957 2.78226C30.3724 2.74624 30.6083 2.44561 30.6074 2.32651C30.6054 2.10941 30.2742 2.80652 30.3478 2.39223C30.3614 2.31646 30.721 1.67495 30.7291 1.68265C30.7288 1.68314 30.7285 1.68364 30.7282 1.68413ZM38.9334 5.30018C38.9293 5.31345 38.9635 5.34098 38.9695 5.32857C39.1119 5.02747 39.043 4.97182 38.9334 5.30018ZM42.9038 7.40196C42.8952 7.43026 42.9757 7.49148 42.9886 7.46734C43.2343 6.97993 43.072 6.85466 42.9038 7.40196ZM36.0241 4.98216C35.8595 5.27671 35.7941 5.29338 35.9135 4.8892C35.9477 4.92655 35.9891 4.94632 36.0241 4.98216Z" fill="white"/>
</svg>
