<svg width="60" height="54" viewBox="0 0 60 54" fill="none" xmlns="http://www.w3.org/2000/svg">
<path d="M59.791 6.04931C59.5417 6.39657 59.0697 6.69052 58.671 6.86954C58.5463 6.92597 58.4712 6.74392 58.3795 6.77667C58.2005 6.84089 58.1395 7.01826 57.9527 7.07084C57.8902 7.08759 57.7468 6.8212 57.6858 6.84376C57.3527 6.96898 57.1699 7.23435 56.8788 7.41253C55.4442 8.28983 54.1629 9.29535 52.83 10.3157C52.3907 10.6523 51.7138 10.903 51.3684 11.3711C51.3283 11.4259 51.5304 11.591 51.5352 11.6153C51.6055 11.99 51.306 11.5589 51.1634 11.5942C50.5983 11.7355 50.1574 12.1007 49.8561 12.5061C49.7284 12.6791 50.2282 12.9184 49.8782 12.8467C49.8543 12.8421 49.7106 12.6028 49.6482 12.6197C49.5069 12.6586 49.3549 12.8613 49.265 12.9131C49.0907 13.012 49.0685 13.0357 48.9289 13.1572C48.7364 13.3216 48.4217 13.4218 48.2615 13.6496C48.2279 13.6988 48.4728 13.8561 48.4361 13.9535C48.3993 14.0508 48.2016 14.1969 48.096 14.2029C47.9904 14.2089 47.8688 14.0214 47.8241 13.9936C47.4491 13.7567 47.6345 14.3855 47.6173 14.4207C47.2907 15.0503 46.6422 15.181 46.1797 15.5988C45.8291 15.9165 45.5276 16.3377 45.1829 16.6277C44.7715 16.9723 44.3319 17.1635 43.9622 17.5316C43.923 17.5703 44.1918 17.7725 44.1444 17.8201C43.6399 18.3262 43.0893 18.7737 42.4122 19.0836C42.3441 19.1144 42.2183 18.8376 42.1387 18.8555C41.6554 18.9702 40.76 19.0065 41.4123 20.1175C41.16 20.2785 40.8596 20.4805 40.493 20.4683C40.2569 20.4606 40.1685 20.1152 40.1032 20.3553C40.0883 20.4092 40.3189 20.5737 40.2825 20.6389C40.1289 20.9135 39.8269 21.0645 39.7036 21.3679C39.6789 21.4301 39.8569 21.6033 39.8742 21.6478C40.01 22.0119 39.4336 21.727 39.3661 21.7294C38.8563 21.7529 38.7275 22.0403 38.4492 22.2804C38.3845 22.336 38.6822 22.5158 38.6279 22.5782C38.3437 22.8985 37.9969 23.1722 37.5885 23.3414C37.4971 23.3784 37.3707 23.1107 37.3173 23.1176C37.0842 23.1506 37.4104 23.5775 37.1938 23.6169C37.1486 23.6257 37.0027 23.4305 36.9795 23.4155C36.6157 23.18 36.9397 23.6861 36.9269 23.7153C36.7741 24.0936 36.1856 23.7906 35.981 24.0929C35.9569 24.1295 36.2335 24.2937 36.1533 24.3827C35.6202 24.977 34.9399 25.4762 34.1916 25.8196C34.0755 25.8733 33.9859 25.6435 33.9612 25.6275C33.5707 25.3811 33.9089 25.8778 33.8943 25.9211C33.7688 26.2514 33.2165 26.0769 33.5325 26.7467C32.3788 27.4546 31.6609 28.6372 30.2548 29.0485C30.2375 29.0542 30.0635 28.8162 30.0297 28.8287C29.6199 28.9761 29.9825 29.263 30.1573 29.8557C30.201 30.0047 29.5987 29.6414 29.5523 29.6169C29.3817 29.5259 29.1405 29.156 29.1005 29.1446C28.7798 29.0614 29.7675 30.1135 29.5848 30.2787C29.5775 30.2821 29.4238 30.0631 29.3907 30.0573C29.2875 30.0387 29.3108 30.1598 29.203 30.1339C28.9545 30.073 28.4472 29.5864 28.557 30.0366C28.5718 30.0945 29.1511 30.6742 28.9618 30.7927C28.8859 30.8394 28.6069 31.1096 28.4906 31.143C28.3744 31.1763 28.2533 30.9304 28.2399 30.9271C27.789 30.8639 27.7748 30.6822 27.3203 30.3967C26.8671 30.1127 27.7183 30.997 27.7655 31.1388C27.8124 31.2803 27.4604 31.2101 27.3542 31.1711C27.2481 31.132 27.1848 30.9635 27.1121 30.9528C26.6335 30.8859 27.4182 31.4966 27.4725 31.7098C27.6016 32.2139 26.853 31.6638 26.6291 31.7454C26.5686 31.7676 26.7435 31.8889 26.7169 31.9389C26.6097 32.1351 26.3255 32.009 26.3214 32.363C26.3206 32.4208 26.5425 32.9571 26.1806 32.7428C26.1286 32.7117 26.0144 32.5094 25.9137 32.5319C25.7629 32.5651 25.5499 32.6902 25.4934 32.8431C25.4517 32.9561 25.7925 33.1519 25.6152 33.1555C25.5362 33.1569 25.472 32.9205 25.3359 32.9367C25.2001 32.9525 24.9949 33.1503 24.9194 33.2284C24.8442 33.3066 25.0778 33.4775 25.0841 33.4975C25.118 33.6142 25.0551 33.8547 25.0413 33.8667C24.3767 34.5119 23.4228 34.7281 22.859 35.4487C22.8145 35.5049 23.0495 35.6955 23.0448 35.7063C22.9487 35.9614 22.5588 35.2433 22.2551 35.1589C22.6791 35.5931 22.5315 35.5783 22.4493 35.7419C22.41 35.821 22.6004 35.9656 22.6109 35.9884C22.759 36.335 22.3877 36.0495 22.3084 35.9941C22.0164 35.7906 22.2253 36.1537 22.0294 36.0183C21.8347 35.8841 21.7004 35.5463 21.5818 35.659C21.693 35.851 22.1628 36.1912 22.1321 36.3426C22.0167 36.9146 21.069 37.1692 20.7581 37.3869C20.4479 37.6042 20.3844 37.7153 20.1691 37.8036C19.7802 37.963 20.1696 38.1787 20.116 38.4863C20.0618 38.7943 19.4577 37.9447 19.2824 37.803C19.1077 37.6609 19.2328 37.8565 19.1188 37.7946C19.0049 37.7326 18.9729 37.5576 18.8668 37.5914C18.7608 37.6252 18.8196 38.105 18.9486 38.302C19.2222 38.7193 19.6614 39.0202 19.3403 39.0648C19.3216 39.0671 19.1766 38.8312 19.1142 38.8503C18.625 39.0088 18.2538 39.3257 17.7813 39.5018C17.716 39.5257 17.5561 39.262 17.5158 39.2734C17.0957 39.391 17.5414 39.677 17.7619 40.242C17.2923 39.6487 16.8951 39.3848 16.6717 39.58C16.5372 39.6972 16.7807 39.9217 16.8506 40.1716C16.8717 40.2468 16.6264 40.163 16.7132 40.2935C16.9965 40.7207 17.4646 41.0628 17.0861 41.0996C17.0689 41.1006 16.915 40.8658 16.8693 40.8844C16.5729 41.0033 16.9012 41.4213 16.7034 41.6858C16.5484 41.8932 15.9964 41.9553 15.7463 42.1097C15.1827 41.4748 15.1098 41.8021 15.4192 42.3111C15.2638 42.4189 15.1353 42.5792 14.9464 42.6405C14.8815 42.6617 14.7475 42.4517 14.7239 42.4372C14.3554 42.2084 14.6759 42.6862 14.6607 42.7299C14.4797 43.1849 13.9251 43.1036 13.896 43.6974C13.8952 43.7187 14.2719 44.173 13.9005 43.928C13.8753 43.9108 13.7985 43.6188 13.6382 43.7353C13.4778 43.8518 12.9901 43.8656 12.9696 44.2518C12.9645 44.345 13.1604 44.8128 12.8102 44.6249C12.7629 44.5991 12.6642 44.4604 12.582 44.4077C12.3192 44.2408 12.6842 44.7142 12.2724 44.4037C11.8605 44.0933 11.4549 43.9482 11.4836 44.3925C11.4839 44.406 11.7515 44.8007 11.682 44.8533C11.5708 44.9368 11.3588 44.9953 11.2533 45.0944C11.2029 45.142 11.4322 45.3303 11.4269 45.3424C11.1908 45.7762 10.7695 45.8037 10.3228 46.0533C10.2405 46.0986 10.3129 46.5718 9.96968 46.4553C9.59351 46.3282 8.77819 45.1244 8.67573 45.6784C8.63362 45.901 9.68683 47.4113 8.81261 46.9247C8.5028 47.5195 7.74685 47.5483 7.50289 48.2188C7.49177 48.2488 7.76647 48.6876 7.71233 48.7271C7.63131 48.7848 7.43147 48.6441 7.36851 48.6797C7.10064 48.8243 7.03594 49.157 6.80277 49.3243C6.71459 49.3883 6.57782 49.1798 6.47262 49.256C6.36765 49.3323 6.52085 49.6311 6.286 49.6317C6.10789 49.6313 5.56584 49.2269 5.38381 49.2868C5.81668 49.7774 5.7182 49.848 5.67472 50.1196C5.66657 50.172 5.85174 50.3117 5.85575 50.3452C5.87544 50.4854 5.69466 50.3943 5.72428 50.5395C5.73121 50.5746 5.88011 50.7411 5.89422 50.7792C6.01991 51.1088 5.52786 50.8756 5.44256 50.8347C5.11766 50.68 5.26422 50.9391 5.09804 50.9127C4.93196 50.8861 4.93986 50.6589 4.79503 50.6825C4.49508 50.7316 4.27504 50.9783 4.07517 51.1445C3.99633 51.2119 4.24848 51.3862 4.24183 51.4009C4.1332 51.6006 3.75986 51.5099 4.06915 52.0308C2.93074 50.9889 4.07283 52.228 3.63942 52.2046C3.60485 52.2022 3.0959 51.683 3.09337 51.5418C3.09089 51.4006 3.34725 51.4753 3.33149 51.2658C3.32801 51.2164 3.00201 50.594 2.9921 50.5474C2.91491 50.1833 3.66099 50.9722 3.70822 51.0099C4.2219 51.4131 3.88945 50.7256 3.89723 50.6504C3.93259 50.3061 4.1968 50.2736 4.24541 50.0068C4.27806 49.8332 3.81241 49.2957 3.9089 49.2381C4.22939 49.0462 4.9883 49.6977 4.66935 48.8274C4.60161 48.6416 4.02683 48.1134 4.63298 48.3899C4.67116 48.4073 5.19168 48.6909 5.03961 48.3519C5.02041 48.3092 4.86849 48.1413 4.86976 48.1145C4.8813 47.9385 5.06467 48.0162 5.10911 47.8598C5.15356 47.7035 5.19031 47.497 5.3585 47.4489C5.45962 47.4196 5.8323 47.6519 5.93515 47.6983C6.22944 47.8338 6.00487 47.3793 6.30499 47.594C6.60681 47.8097 6.85877 48.323 7.17122 48.3565C6.78319 47.9141 6.39223 47.4534 6.00548 47.0053C6.36086 46.7131 6.8242 46.5519 7.14946 46.2239C7.18938 46.1829 6.93423 45.9869 6.97158 45.9368C7.13007 45.7264 7.44881 45.7428 7.58796 45.4966C7.69485 45.3052 7.63983 44.904 7.74462 44.696C8.29377 45.1076 8.38009 44.7222 8.59512 44.6114C8.67025 44.5723 8.78653 44.7096 8.8691 44.7142C9.1777 44.7283 8.70292 44.3551 8.68504 44.2452C8.60976 43.7751 9.52754 44.7611 9.73184 44.5323C9.74297 44.5205 9.40925 43.8549 9.39953 43.8035C9.33284 43.4712 9.58802 43.97 9.70387 43.937C9.91547 43.8769 10.1322 43.9125 10.1636 43.6012C10.1721 43.5097 9.99306 43.0688 10.3222 43.2381C10.3653 43.2603 10.517 43.443 10.5366 43.444C10.8785 43.4478 10.3844 42.8894 10.3222 42.6056C10.26 42.3218 10.7694 42.5557 10.9022 42.6357C11.2469 42.8418 10.9447 42.8182 10.9652 42.8505C11.2092 43.2338 11.2779 43.0681 11.3951 43.0135C11.8977 43.5447 11.9969 43.3963 11.5147 42.9546C11.4618 42.9066 11.4359 43.0217 11.3951 43.0135C10.9958 42.4078 11.0755 42.2124 11.6801 42.5699C11.9634 42.7375 12.1395 43.0719 12.2717 42.7725C12.3319 42.6369 11.9561 42.2979 11.9531 42.1159C11.9465 41.7004 12.5245 41.8117 12.6843 41.5683C12.7423 41.4799 12.4839 41.3418 12.5172 41.2744C12.6049 41.0947 12.8647 41.1389 12.9322 40.9356C12.9381 40.917 12.7144 40.7302 12.755 40.6887C13.0587 40.3701 13.4663 40.2516 13.8103 39.9487C13.9764 39.8022 14.1641 39.4191 14.3559 39.2893C14.6873 39.0632 15.3314 39.0476 15.5155 38.7446C15.6365 38.5479 15.4073 38.366 15.3463 38.1564C15.2273 37.7507 15.925 38.0409 16.0282 38.0902C16.0315 38.0919 15.9354 38.27 16.1101 38.312C16.3605 38.5017 16.0275 38.0927 16.0282 38.0902C16.0952 38.1218 16.4219 37.9156 16.4412 37.824C16.4515 37.7741 16.2515 37.5864 16.2604 37.5642C16.475 37.0417 16.8075 36.6488 17.2767 36.3981C17.2872 36.3962 17.4816 36.6325 17.5036 36.625C17.8167 36.526 17.7087 36.1199 17.7433 35.7899C17.7779 35.46 17.9729 35.3844 18.4326 35.6767C18.5266 35.5032 18.8802 35.497 19.0885 35.4988C19.2969 35.5007 18.9145 35.0441 18.9167 35.0263C18.9778 34.4645 19.3868 34.5545 19.7471 34.3013C19.9191 34.1817 20.1677 33.8416 20.2914 33.6426C20.3885 33.4846 20.5615 33.5165 20.6236 33.3406C20.6321 33.3169 20.4381 33.135 20.4363 33.1229C20.36 32.7649 20.7283 33.3051 20.8337 33.3658C21.2171 33.5868 21.4299 33.6967 21.4715 33.3928C21.4813 33.323 20.974 32.5246 21.0106 32.4181C21.0595 32.281 21.2473 32.5618 21.2927 32.4118C21.2968 32.3993 21.157 32.2476 21.2246 32.199C21.5364 31.9712 21.928 31.7802 22.2107 31.4977C22.2499 31.4596 21.979 31.2633 22.0319 31.2044C22.2807 30.9282 22.5898 30.666 22.9599 30.5388C23.0517 30.5083 23.1637 30.7157 23.2235 30.7533C23.5867 30.9801 23.311 30.4236 23.324 30.3967C23.6216 29.7418 24.3587 29.8062 24.6857 29.165C24.7027 29.1293 24.483 28.4645 24.9443 28.7889C24.9751 28.8104 25.4439 29.1451 25.2682 28.7858C25.2572 28.7634 25.0058 28.6 25.126 28.5315C25.2462 28.4629 25.2784 28.1737 25.6294 28.2857C25.7402 28.3208 26.219 28.6447 26.05 28.1949C26.0376 28.1641 25.562 27.2313 26.1009 27.6851C26.1894 27.76 26.6713 28.3196 26.5736 27.8981C26.5542 27.8168 26.39 27.7431 26.3995 27.5961C26.4134 27.3702 26.7048 27.374 26.6322 26.9967C26.6189 26.9302 26.393 26.4592 26.7355 26.6627C26.7891 26.6946 26.9279 26.9013 26.9928 26.8801C27.302 26.7797 27.4226 26.4491 27.7607 26.3741C27.8802 26.3472 28.1063 26.6798 28.2605 26.6847C28.4147 26.6895 28.65 26.6157 28.6147 26.4025C28.5793 26.1891 28.0597 25.8023 28.1554 25.6478C28.5714 24.976 29.3793 24.7498 29.9787 24.2833C30.0676 24.2141 29.8463 24.1076 29.9664 23.9936C30.4088 23.5724 31.0494 22.7087 31.7662 22.713C32.3405 22.7163 32.1406 23.2926 32.487 23.1925C32.6535 23.1435 32.2852 22.4815 32.2977 22.439C32.4139 22.0165 32.8234 22.0878 33.0031 21.7909C33.0402 21.7295 32.7899 21.5522 32.8236 21.5024C32.9371 21.3304 33.1822 21.2894 33.3075 21.1437C33.3632 21.0778 33.1985 20.9185 33.2688 20.8789C33.4351 20.7824 33.6231 20.7424 33.9029 20.7787C33.9284 20.7821 34.0349 21.0688 34.1454 20.9835C34.3238 20.8447 34.6732 20.8145 34.7198 20.4788C34.733 20.3785 34.3856 19.9883 34.75 20.1457C34.8262 20.1785 35.2131 20.6742 34.9935 20.1425C34.9573 20.0539 34.7085 19.2941 35.142 19.5379C35.2561 19.6021 35.6791 19.9119 35.6939 19.7901C35.6946 19.7721 35.4694 19.5972 35.5081 19.5256C35.6476 19.2767 35.8781 19.1094 36.0255 18.8583C36.0645 18.7908 35.7881 18.649 35.8525 18.5553C36.0291 18.2974 36.3605 18.0985 36.6421 17.9672C36.7463 17.9192 36.851 18.1486 36.8744 18.1627C37.2546 18.3933 36.9263 17.9155 36.9355 17.8622C36.9978 17.536 37.3282 17.6017 37.4616 17.3854C37.4989 17.3263 37.28 17.1546 37.2737 17.1275C37.2171 16.8571 37.4696 17.292 37.5712 17.2735C37.8571 17.2227 38.0464 17.0226 38.2081 16.8298C38.2673 16.7587 37.9782 16.5914 38.0337 16.5303C38.3583 16.1643 38.7541 15.8487 39.2239 15.6613C39.3127 15.6265 39.4347 15.8459 39.4859 15.875C39.8429 16.0796 39.6258 15.5575 39.6239 15.4908C39.6149 15.1868 39.8165 15.2964 39.9186 15.1501C40.4147 14.4326 41.2894 13.8377 41.944 13.3672C42.7961 12.7531 43.5538 12.3838 44.2532 11.6726C44.2979 11.6276 44.0326 11.4285 44.0683 11.3866C44.5391 10.857 45.1394 10.4874 45.6009 9.94529C45.6391 9.90123 45.3706 9.72782 45.4251 9.6494C45.5353 9.48693 45.726 9.33776 45.9352 9.28197C46.0368 9.25431 46.1203 9.53545 46.219 9.5036C46.4491 9.42988 46.6394 9.28813 46.7744 9.09989C46.8315 9.01928 46.5123 8.88206 46.6029 8.79556C47.2156 8.20153 47.8016 7.60059 48.7155 7.32746C48.7782 7.30877 49.246 7.75065 49.257 7.57518C49.1449 7.43659 49.0044 7.28135 48.8801 7.13722C49.7341 6.23018 50.796 5.57298 51.7441 4.7653C51.784 4.73119 51.4892 4.5394 51.5653 4.47208C52.0057 4.08216 52.3671 3.62995 53.0402 3.47827C53.1067 3.46287 53.484 3.92759 53.5542 3.74267C53.5663 3.70965 53.7098 3.47308 53.6738 3.3308C53.6676 3.31003 53.445 3.13503 53.503 3.07185C53.8433 2.70831 54.2723 2.40767 54.7544 2.20288C54.8326 2.17023 54.9682 2.44801 55.0256 2.42667C55.4313 2.27359 55.6065 1.81174 56.0738 1.75395C56.3873 1.71606 56.6601 2.16175 57.1004 2.44559C57.1626 2.4856 57.289 2.38695 57.4921 2.60001C58.0029 3.13547 58.4875 3.78921 59.0388 4.35384C59.1575 4.47554 59.1942 4.19625 59.3746 4.58609C59.3864 4.61243 59.3622 4.81759 59.4269 4.94665C59.4716 5.036 59.7075 5.22619 59.7496 5.35412C59.7916 5.48196 59.5794 5.33557 59.6093 5.50344C59.6405 5.67261 59.8977 5.89901 59.791 6.04931ZM20.0235 35.5037C20.3204 35.6209 19.6354 34.829 19.6888 35.118C19.6922 35.1329 20.0087 35.4982 20.0235 35.5037ZM7.35074 47.1403C7.79786 47.359 7.43803 46.7694 7.10194 46.5922C6.76611 46.4153 7.21498 47.0742 7.35074 47.1403ZM6.14401 48.6809C6.54907 48.806 5.58105 47.6801 5.60896 48.0588C5.61025 48.0804 6.12043 48.6737 6.14401 48.6809ZM56.7238 2.9786C56.7346 2.98762 56.8291 2.92073 56.8219 2.90865C56.6449 2.62064 56.4561 2.75455 56.7238 2.9786ZM4.96828 50.2337C5.15305 50.3376 5.14304 50.0346 4.9133 49.9055C4.72847 49.8016 4.73834 50.1047 4.96828 50.2337ZM26.2827 31.3698C26.2948 31.3798 26.3655 31.3351 26.3052 31.2707C26.111 31.0634 26.0794 31.1998 26.2827 31.3698ZM2.56399 52.4222C2.95829 52.1423 3.99534 52.8585 3.51406 53.1058C3.42692 53.1506 3.40406 52.6786 3.24049 52.6771C2.94178 52.6751 3.3482 53.3452 2.9048 53.1894C2.82399 53.1605 2.53968 52.4362 2.56347 52.4204C2.56364 52.421 2.5638 52.4216 2.56399 52.4222ZM20.9258 36.3832C20.9372 36.3916 21.0308 36.325 21.0236 36.3129C20.8471 36.0246 20.6585 36.1587 20.9258 36.3832ZM30.2902 28.6314C30.3146 28.6491 30.5298 28.4924 30.5181 28.4664C30.257 27.9702 29.8208 28.2858 30.2902 28.6314ZM15.7278 42.0959C15.859 42.4277 15.7747 42.5566 15.4199 42.3111C15.5268 42.2448 15.6216 42.1639 15.7278 42.0959ZM4.84603 0.900903C5.21739 1.11266 5.55893 1.5515 5.77853 1.92939C5.84765 2.0475 5.67442 2.14116 5.71654 2.2289C5.79908 2.40032 5.98184 2.44248 6.0536 2.62276C6.07678 2.68318 5.82677 2.85351 5.85558 2.91187C6.01482 3.23009 6.2978 3.38422 6.50536 3.65524C7.52741 4.99057 8.66098 6.16003 9.81471 7.37937C10.1953 7.78123 10.5152 8.42827 11.0167 8.723C11.0754 8.75721 11.2185 8.53899 11.2422 8.53167C11.6075 8.42269 11.21 8.76545 11.26 8.90361C11.4594 9.45089 11.8686 9.85141 12.3031 10.1088C12.4885 10.2177 12.6744 9.69567 12.6395 10.0513C12.6375 10.0756 12.4145 10.2434 12.4378 10.3037C12.4912 10.4402 12.7086 10.5702 12.7695 10.6542C12.886 10.8173 12.9119 10.8369 13.0473 10.9631C13.2309 11.1374 13.3633 11.4399 13.6066 11.5755C13.659 11.6038 13.79 11.3438 13.8906 11.3701C13.9913 11.3966 14.1571 11.578 14.1741 11.6824C14.1911 11.7868 14.0173 11.9273 13.9943 11.9747C13.7978 12.3724 14.4039 12.1224 14.4407 12.1358C15.1008 12.395 15.2984 13.0264 15.7622 13.4428C16.1147 13.7584 16.565 14.0143 16.8893 14.3269C17.275 14.7002 17.5109 15.1175 17.9156 15.4467C17.9581 15.4817 18.1312 15.1933 18.1835 15.2355C18.7394 15.6845 19.2419 16.1855 19.6206 16.8266C19.6584 16.8911 19.3962 17.045 19.4223 17.1224C19.5867 17.5911 19.7162 18.4778 20.7532 17.7133C20.9395 17.9475 21.1718 18.2252 21.1978 18.591C21.2147 18.8266 20.8805 18.9506 21.1261 18.9904C21.1813 18.9997 21.3208 18.7531 21.3895 18.7826C21.6786 18.9067 21.8602 19.1913 22.1748 19.2824C22.2393 19.3004 22.3929 19.1053 22.4354 19.0835C22.7833 18.9105 22.5601 19.5135 22.5695 19.5804C22.646 20.0849 22.9453 20.183 23.213 20.4348C23.2751 20.4934 23.4229 20.1786 23.4906 20.226C23.8388 20.4754 24.1472 20.7917 24.358 21.1803C24.4043 21.2673 24.1512 21.421 24.1637 21.4733C24.2208 21.7017 24.6114 21.3327 24.6732 21.5441C24.6866 21.5881 24.5077 21.7536 24.4952 21.7782C24.2989 22.1646 24.7685 21.7896 24.7988 21.7993C25.191 21.9118 24.951 22.5287 25.2729 22.7007C25.3119 22.7208 25.4464 22.4286 25.5433 22.4991C26.1899 22.9674 26.7573 23.592 27.1767 24.3004C27.2422 24.4102 27.023 24.5233 27.0097 24.5496C26.8054 24.9636 27.2641 24.5754 27.3087 24.5854C27.6503 24.6758 27.5342 25.2433 28.1675 24.8593C28.9918 25.9329 30.2428 26.5237 30.7984 27.8791C30.8059 27.8958 30.5873 28.0936 30.6032 28.126C30.7926 28.5182 31.0401 28.1277 31.6113 27.892C31.7549 27.833 31.4564 28.4699 31.4369 28.5186C31.3642 28.6978 31.0214 28.9762 31.0143 29.0172C30.9649 29.3448 31.9084 28.2528 32.0917 28.4173C32.0959 28.4243 31.8941 28.5999 31.8918 28.6334C31.884 28.738 32.002 28.7022 31.9875 28.8122C31.9528 29.0656 31.5217 29.6208 31.958 29.4647C32.0141 29.444 32.5303 28.8074 32.6678 28.9834C32.7222 29.054 33.02 29.3033 33.0653 29.4155C33.1106 29.5276 32.8787 29.6736 32.8768 29.6873C32.8609 30.1423 32.6817 30.1754 32.4451 30.6572C32.2098 31.1376 33.0007 30.1988 33.1367 30.137C33.2726 30.0757 33.2395 30.4331 33.2117 30.5427C33.1839 30.6523 33.0229 30.7329 33.0199 30.8063C33.0032 31.2892 33.5288 30.4451 33.7351 30.369C34.2231 30.188 33.7539 30.9899 33.8585 31.204C33.8868 31.2619 33.9893 31.0753 34.0418 31.0966C34.248 31.1827 34.1523 31.4786 34.5048 31.4457C34.5624 31.4405 35.0726 31.1639 34.8972 31.5462C34.8717 31.6011 34.6824 31.7357 34.7152 31.8336C34.764 31.9801 34.9106 32.1789 35.0686 32.2192C35.1853 32.2488 35.3446 31.8895 35.3666 32.0655C35.3762 32.1439 35.1478 32.2323 35.1781 32.3661C35.2079 32.4994 35.426 32.6829 35.5116 32.7499C35.5972 32.8165 35.7428 32.5664 35.7621 32.558C35.8746 32.5122 36.1203 32.5496 36.1337 32.5621C36.8446 33.1559 37.1591 34.082 37.9346 34.5676C37.9951 34.606 38.1601 34.3525 38.1714 34.356C38.4351 34.425 37.7615 34.8876 37.7092 35.1984C38.0969 34.7315 38.0976 34.8799 38.2688 34.9446C38.3517 34.9754 38.4756 34.771 38.4972 34.7581C38.8264 34.5747 38.5812 34.9738 38.5344 35.0584C38.3624 35.37 38.7018 35.1245 38.5875 35.3334C38.4744 35.541 38.1524 35.7098 38.2768 35.816C38.4562 35.6854 38.7456 35.1826 38.8994 35.1974C39.4802 35.2526 39.8322 36.1686 40.0812 36.4551C40.3296 36.741 40.4467 36.7925 40.557 36.9974C40.7561 37.3676 40.93 36.9579 41.2415 36.9791C41.5535 37.0009 40.7714 37.6902 40.6488 37.8794C40.5257 38.068 40.7072 37.9232 40.6575 38.043C40.6077 38.1627 40.437 38.2127 40.4816 38.3147C40.5263 38.4167 40.9974 38.3082 41.1799 38.1593C41.5664 37.8438 41.8199 37.3756 41.8977 37.6903C41.9019 37.7087 41.6825 37.8775 41.708 37.9375C41.9166 38.4075 42.2704 38.7437 42.4948 39.1953C42.5254 39.2577 42.2798 39.4442 42.2953 39.4831C42.4561 39.8886 42.6941 39.4156 43.233 39.1374C42.6919 39.6663 42.4708 40.0888 42.6882 40.2907C42.8188 40.4122 43.0167 40.1466 43.2579 40.0511C43.3305 40.0222 43.2728 40.2749 43.3936 40.175C43.7889 39.8488 44.0803 39.3475 44.1564 39.7201C44.1592 39.7371 43.9417 39.9147 43.9649 39.9582C44.114 40.2406 44.4956 39.8705 44.7793 40.0397C45.0017 40.1722 45.1209 40.7147 45.3006 40.9473C44.7279 41.5741 45.061 41.6124 45.535 41.2516C45.6584 41.395 45.8312 41.5061 45.9118 41.6876C45.9398 41.7499 45.7448 41.9051 45.7329 41.9301C45.5438 42.3204 45.9855 41.9519 46.0305 41.9624C46.502 42.095 46.4789 42.6551 47.0725 42.6221C47.0938 42.6207 47.5063 42.1987 47.3014 42.5936C47.2869 42.6205 47.0045 42.7272 47.1371 42.8745C47.2696 43.0219 47.3342 43.5055 47.7204 43.4856C47.8137 43.4811 48.2585 43.2375 48.1081 43.6054C48.0874 43.6551 47.9597 43.7677 47.9159 43.8549C47.7773 44.1337 48.2101 43.7213 47.9442 44.1633C47.6784 44.6053 47.5764 45.0238 48.0153 44.9489C48.0286 44.9473 48.3933 44.64 48.4528 44.7036C48.5475 44.8055 48.6278 45.0103 48.7374 45.1048C48.7899 45.1499 48.9533 44.9023 48.9658 44.9063C49.4219 45.0959 49.4932 45.5121 49.788 45.9303C49.8416 46.0074 50.3047 45.8861 50.2246 46.2396C50.1374 46.627 49.0251 47.5633 49.5868 47.6075C49.8126 47.6262 51.2049 46.4213 50.8121 47.3414C51.4359 47.5876 51.5433 48.3364 52.2356 48.5092C52.2666 48.5171 52.6744 48.1981 52.7193 48.2479C52.7852 48.3224 52.666 48.5359 52.708 48.5948C52.8797 48.8461 53.2174 48.8758 53.4081 49.0902C53.4808 49.1713 53.2878 49.329 53.3745 49.4257C53.4614 49.5222 53.7425 49.3386 53.7676 49.5722C53.7858 49.7493 53.4401 50.3306 53.5186 50.5054C53.9615 50.0237 54.0419 50.1143 54.3165 50.1293C54.3695 50.1319 54.4892 49.9332 54.5221 49.9257C54.6595 49.8915 54.5877 50.0808 54.729 50.0362C54.7632 50.0257 54.9133 49.8602 54.9497 49.8422C55.2644 49.6829 55.0838 50.1965 55.0519 50.2856C54.932 50.6249 55.1744 50.4521 55.1654 50.6201C55.1564 50.7881 54.9295 50.8039 54.9681 50.9455C55.0482 51.2387 55.3165 51.4318 55.5026 51.6133C55.5778 51.6847 55.7249 51.4157 55.7403 51.4208C55.9502 51.508 55.8989 51.8888 56.3848 51.5269C55.4672 52.7677 56.5805 51.5027 56.6023 51.9362C56.6036 51.9708 56.1403 52.5311 56.0001 52.5483C55.8599 52.5655 55.9075 52.3028 55.7008 52.3403C55.652 52.3489 55.0669 52.738 55.0217 52.7527C54.6675 52.8674 55.3744 52.0432 55.4069 51.9923C55.7545 51.4394 55.1054 51.8416 55.0298 51.8417C54.6837 51.8425 54.6238 51.5831 54.3534 51.5625C54.1774 51.5482 53.6913 52.0673 53.6239 51.9773C53.3997 51.6786 53.9685 50.8559 53.1363 51.2638C52.9585 51.3506 52.493 51.9773 52.7048 51.3456C52.7182 51.3058 52.946 50.7586 52.6247 50.9451C52.5843 50.9687 52.433 51.1373 52.4063 51.1388C52.23 51.1457 52.2882 50.9552 52.1281 50.9273C51.9679 50.8994 51.7588 50.8844 51.6934 50.7221C51.6538 50.6246 51.8459 50.2297 51.8813 50.1226C51.9854 49.8158 51.5568 50.0865 51.7391 49.7656C51.9221 49.443 52.4064 49.1389 52.4072 48.8247C52.0076 49.2567 51.5901 49.6935 51.1848 50.1249C50.8572 49.8019 50.6485 49.3579 50.2884 49.0686C50.2434 49.0332 50.0751 49.3073 50.0214 49.2754C49.7957 49.1397 49.7788 48.821 49.5194 48.7083C49.3178 48.6219 48.9246 48.7184 48.7068 48.6359C49.0589 48.0468 48.6666 48.0012 48.534 47.7989C48.4873 47.7282 48.6117 47.5983 48.6077 47.5157C48.5895 47.2073 48.2679 47.7184 48.1604 47.7476C47.7008 47.8715 48.5857 46.8559 48.3368 46.6766C48.3239 46.6667 47.6968 47.068 47.6466 47.083C47.3231 47.184 47.7926 46.8782 47.7477 46.7664C47.6659 46.5622 47.6787 46.343 47.3658 46.3442C47.2739 46.3453 46.8541 46.5693 46.9882 46.2244C47.0057 46.1791 47.1716 46.0092 47.1706 45.9896C47.1388 45.6492 46.6349 46.1988 46.3591 46.2902C46.0834 46.3817 46.2629 45.8507 46.3286 45.7102C46.4977 45.346 46.5057 45.649 46.5356 45.6253C46.8914 45.3426 46.7195 45.2916 46.6529 45.1806C47.1289 44.6254 46.971 44.5423 46.582 45.0678C46.5397 45.1254 46.6568 45.1392 46.6529 45.1806C46.0922 45.6409 45.8895 45.582 46.1821 44.9434C46.3193 44.6442 46.6335 44.4342 46.3219 44.334C46.1808 44.2882 45.8828 44.6973 45.7021 44.7193C45.2896 44.7691 45.3401 44.1826 45.0813 44.0491C44.9873 44.0007 44.8769 44.272 44.8064 44.246C44.6186 44.1775 44.6355 43.9144 44.4262 43.8685C44.407 43.8646 44.2446 44.1065 44.1991 44.0705C43.8506 43.8016 43.6902 43.4086 43.3531 43.0981C43.1902 42.9481 42.7896 42.8014 42.6405 42.6241C42.3811 42.3182 42.2984 41.6792 41.9778 41.5276C41.7696 41.4278 41.6126 41.6747 41.4106 41.7573C41.0195 41.9178 41.2353 41.1937 41.2736 41.086C41.275 41.0825 41.4621 41.1595 41.4857 40.9814C41.6482 40.7125 41.2761 41.0864 41.2736 41.086C41.298 41.016 41.0589 40.7126 40.9658 40.7029C40.9151 40.6978 40.7493 40.9163 40.7263 40.9098C40.1843 40.7508 39.7588 40.4611 39.4606 40.0206C39.4576 40.0104 39.6724 39.7924 39.6626 39.7712C39.5315 39.4702 39.1389 39.62 38.8071 39.6199C38.4754 39.6199 38.3799 39.4338 38.6227 38.9461C38.4403 38.8708 38.3973 38.5197 38.3774 38.3123C38.3575 38.105 37.9433 38.5328 37.9254 38.5325C37.3602 38.5303 37.4072 38.1141 37.1178 37.7821C36.9809 37.6235 36.6167 37.4117 36.4059 37.3095C36.2387 37.2294 36.2524 37.054 36.0709 37.0106C36.0465 37.0046 35.8858 37.2165 35.8739 37.2196C35.5258 37.3327 36.0247 36.9102 36.074 36.799C36.2539 36.3947 36.341 36.1716 36.0345 36.1619C35.964 36.1594 35.2228 36.7472 35.1131 36.7218C34.9716 36.6875 35.2313 36.4714 35.0775 36.4419C35.0645 36.4391 34.9283 36.594 34.8729 36.5318C34.6139 36.2454 34.383 35.876 34.0726 35.6242C34.0307 35.5892 33.8637 35.8791 33.7996 35.8326C33.499 35.614 33.206 35.3338 33.0409 34.979C33.0009 34.8909 33.1955 34.7579 33.2268 34.6945C33.4144 34.3096 32.8897 34.6418 32.8616 34.6318C32.1793 34.404 32.1665 33.6642 31.4947 33.4058C31.4574 33.3926 30.8191 33.6804 31.0937 33.1879C31.1118 33.1549 31.3959 32.6538 31.0568 32.866C31.0357 32.8793 30.8994 33.1463 30.8187 33.0339C30.738 32.9216 30.447 32.9197 30.5218 32.5589C30.5452 32.4451 30.8174 31.9351 30.3877 32.15C30.3583 32.1656 29.4802 32.7358 29.8754 32.1526C29.9406 32.0568 30.4469 31.5191 30.038 31.6602C29.9591 31.688 29.9029 31.859 29.7557 31.8649C29.5296 31.8746 29.503 31.5844 29.1353 31.6959C29.0706 31.716 28.6257 31.9898 28.7924 31.628C28.8185 31.5714 29.0097 31.4117 28.9817 31.3494C28.8497 31.0524 28.5083 30.9669 28.3985 30.6384C28.3592 30.5224 28.6665 30.2628 28.6553 30.109C28.644 29.9552 28.5461 29.7288 28.3377 29.7861C28.1292 29.8435 27.7987 30.4007 27.635 30.3216C26.9235 29.9779 26.6144 29.198 26.0879 28.6505C26.0099 28.5692 25.927 28.8004 25.801 28.6928C25.3361 28.2968 24.4103 27.7497 24.3398 27.0363C24.2833 26.4648 24.8773 26.6035 24.7416 26.2695C24.6755 26.1089 24.0556 26.5443 24.0119 26.5363C23.5796 26.4647 23.6079 26.05 23.2939 25.9022C23.229 25.8718 23.0787 26.1392 23.0256 26.1109C22.8427 26.0159 22.7764 25.7764 22.6184 25.667C22.5471 25.6185 22.4058 25.7989 22.3592 25.7331C22.2458 25.5777 22.1864 25.3949 22.1934 25.1129C22.1941 25.0872 22.4682 24.9514 22.3718 24.8503C22.2152 24.6874 22.1488 24.3431 21.81 24.3317C21.7089 24.329 21.357 24.7152 21.4756 24.3364C21.5002 24.2572 21.9529 23.8207 21.447 24.0945C21.3627 24.1397 20.6329 24.4664 20.8303 24.0099C20.8821 23.8897 21.1462 23.4367 21.0235 23.4347C21.0055 23.4359 20.8551 23.678 20.7798 23.647C20.5177 23.5342 20.3273 23.3225 20.0622 23.202C19.991 23.1702 19.8788 23.4599 19.7789 23.4056C19.504 23.2568 19.2716 22.948 19.1117 22.6816C19.0531 22.583 19.2703 22.455 19.2819 22.4302C19.4716 22.028 19.0307 22.4043 18.9767 22.4008C18.6458 22.3728 18.6767 22.0374 18.4477 21.9272C18.385 21.8963 18.2371 22.1318 18.2108 22.141C17.9477 22.2254 18.354 21.929 18.3249 21.8299C18.2447 21.5509 18.0258 21.3834 17.8173 21.2427C17.7404 21.1913 17.6042 21.4962 17.5376 21.4474C17.1398 21.1627 16.7846 20.8019 16.5493 20.3542C16.5054 20.2695 16.7109 20.1253 16.7345 20.0714C16.9008 19.695 16.4042 19.9654 16.338 19.9741C16.0366 20.0148 16.1246 19.8029 15.9684 19.7166C15.2032 19.2979 14.5203 18.4901 13.9842 17.888C13.2846 17.1046 12.8384 16.3895 12.0581 15.768C12.0087 15.7283 11.8383 16.0128 11.793 15.9817C11.2171 15.5687 10.787 15.0101 10.1998 14.6077C10.152 14.5743 10.0075 14.8594 9.92381 14.8134C9.75073 14.7207 9.5825 14.5466 9.50521 14.3444C9.46712 14.2462 9.73802 14.1339 9.69606 14.039C9.59875 13.8178 9.43794 13.6434 9.23665 13.5287C9.15054 13.4803 9.04733 13.8121 8.95186 13.731C8.2972 13.1835 7.63846 12.6633 7.27157 11.7829C7.24645 11.7225 7.63717 11.2112 7.4615 11.2185C7.33535 11.3445 7.1956 11.5004 7.06521 11.639C6.0741 10.8843 5.30981 9.89664 4.40771 9.03788C4.36963 9.00172 4.20961 9.31495 4.13472 9.24624C3.70102 8.84886 3.21361 8.53655 2.9926 7.88291C2.97035 7.81841 3.39321 7.39468 3.20199 7.34413C3.16789 7.33563 2.91765 7.21755 2.7799 7.26814C2.75988 7.27645 2.60904 7.51615 2.54016 7.46506C2.14313 7.16449 1.79942 6.76918 1.5455 6.31101C1.50487 6.23667 1.76701 6.07283 1.7398 6.01797C1.54528 5.63046 1.06768 5.50432 0.96149 5.04556C0.891129 4.7377 1.30597 4.42001 1.54237 3.95244C1.57568 3.88644 1.46439 3.77099 1.65513 3.54686C2.13443 2.98297 2.73411 2.43293 3.23819 1.82576C3.34687 1.69506 3.06526 1.68762 3.43418 1.46754C3.45915 1.45306 3.66572 1.45579 3.78732 1.37793C3.87154 1.32423 4.0361 1.0698 4.15895 1.01461C4.28172 0.959497 4.15824 1.18581 4.32207 1.13853C4.48707 1.08989 4.68544 0.810484 4.84603 0.900903ZM38.2848 37.382C38.3704 37.0744 37.6542 37.8382 37.9361 37.7551C37.9506 37.7501 38.2808 37.3973 38.2848 37.382ZM51.1788 48.7729C51.3497 48.3054 50.8008 48.7247 50.6596 49.0775C50.5187 49.4299 51.1273 48.9148 51.1788 48.7729ZM52.8368 49.8125C52.919 49.3966 51.9001 50.4767 52.2738 50.4094C52.2952 50.4059 52.8321 49.8367 52.8368 49.8125ZM2.11173 4.27148C2.11958 4.25984 2.0432 4.17282 2.03194 4.18122C1.76394 4.38728 1.91681 4.56112 2.11173 4.27148ZM54.5037 50.82C54.5877 50.6254 54.2875 50.6669 54.183 50.9088C54.099 51.1035 54.3993 51.0621 54.5037 50.82ZM33.521 31.5877C33.5298 31.5746 33.4779 31.509 33.4201 31.5756C33.2342 31.7904 33.3731 31.8076 33.521 31.5877ZM56.9309 52.9831C56.6114 52.6201 57.2156 51.514 57.5117 51.9669C57.5653 52.0489 57.0983 52.1208 57.1139 52.2837C57.143 52.581 57.7671 52.1069 57.6583 52.5641C57.6381 52.6475 56.9473 53.0058 56.9291 52.9838C56.9297 52.9835 56.9303 52.9833 56.9309 52.9831ZM39.0654 36.3929C39.0726 36.3807 38.9966 36.2946 38.9854 36.3029C38.717 36.5085 38.87 36.6822 39.0654 36.3929ZM30.3799 27.8875C30.395 27.8613 30.2166 27.6636 30.192 27.678C29.7257 27.9894 30.0851 28.3904 30.3799 27.8875ZM45.2888 40.9672C45.6051 40.8021 45.7421 40.8726 45.5349 41.2509C45.4579 41.1516 45.3675 41.0658 45.2888 40.9672Z" fill="white"/>
</svg>
